<svg width="353" height="285" viewBox="0 0 353 285" fill="none" xmlns="http://www.w3.org/2000/svg">
<path d="M351.392 30.396H0.400879L0.400879 283.939H351.392V30.396Z" fill="#B5B4DF" fill-opacity="0.6"/>
<path d="M351.392 283.939C351.392 281.272 351.269 184.037 351.068 30.3963L351.392 30.7163C252.894 30.7316 131.506 30.762 0.431873 30.7925H0.401024L0.802055 30.3963C0.786631 121.368 0.771206 207.599 0.771206 283.939L0.401024 283.574C208.056 283.802 348.169 283.939 351.392 283.939C348.169 283.939 208.056 284.092 0.401024 284.305H0.0308489V283.939C0.0154248 207.599 0 121.368 0 30.3963L0 30H0.401024H0.431873C131.506 30.0305 252.894 30.0457 351.392 30.0762H351.716V30.3963C351.516 184.037 351.392 281.272 351.392 283.939Z" fill="#263238"/>
<path d="M352.58 67.294C352.58 67.5075 274.179 67.6906 177.485 67.6906C80.7609 67.6906 2.37549 67.5075 2.37549 67.294C2.37549 67.0805 80.7609 66.8975 177.485 66.8975C274.164 66.8975 352.58 67.0805 352.58 67.294Z" fill="#E0E0E0"/>
<path d="M22.9047 48.0601C22.9047 50.9405 20.5448 53.2876 17.6142 53.2876C14.699 53.2876 12.3237 50.9558 12.3237 48.0601C12.3237 45.1796 14.6836 42.8325 17.6142 42.8325C20.5448 42.8325 22.9047 45.1796 22.9047 48.0601Z" fill="#ED6A5E"/>
<path d="M38.8378 48.0596C38.8378 50.9401 36.4779 53.2872 33.5473 53.2872C30.6322 53.2872 28.2568 50.9554 28.2568 48.0596C28.2568 45.1791 30.6167 42.832 33.5473 42.832C36.4625 42.832 38.8378 45.1791 38.8378 48.0596Z" fill="#F4BD4F"/>
<path d="M54.7557 48.0601C54.7557 50.9405 52.3959 53.2876 49.4653 53.2876C46.5501 53.2876 44.1748 50.9558 44.1748 48.0601C44.1748 45.1796 46.5347 42.8325 49.4653 42.8325C52.3959 42.8325 54.7557 45.1796 54.7557 48.0601Z" fill="#63C555"/>
<path d="M242.472 32.5824C242.4 31.6348 241.932 30.7623 241.381 29.9863C239.586 27.46 236.79 25.6649 233.743 25.0874C236.282 23.7983 238.842 22.3876 240.705 20.2349C242.566 18.0805 243.62 15.0124 242.683 12.3234C241.762 9.67365 239.177 7.96263 236.566 6.93636C232.939 5.50959 228.848 5.03756 225.116 6.15859C221.383 7.27784 218.088 10.1296 216.942 13.8556L220.604 23.2387C221.074 26.9325 222.56 30.4905 224.85 33.4245C225.899 34.7672 227.435 36.0885 229.102 35.7363C230.519 35.4377 231.442 33.9626 231.58 32.518C231.719 31.0751 231.245 29.6519 230.779 28.2788C232.635 30.9518 235.166 33.1509 238.073 34.6152C239.08 35.1212 240.303 35.536 241.301 35.0068C242.139 34.5598 242.545 33.53 242.472 32.5824" fill="#17282F"/>
<path d="M243.888 13.2806C243.845 13.37 242.593 12.6798 240.399 12.0969C238.223 11.5051 235.039 11.1351 231.66 11.852C228.281 12.5708 225.522 14.2067 223.775 15.6317C222.011 17.0549 221.147 18.1956 221.072 18.1312C221.045 18.1097 221.231 17.8058 221.631 17.2998C222.03 16.7921 222.66 16.0983 223.529 15.3349C225.245 13.8062 228.059 12.0612 231.547 11.3174C235.034 10.5772 238.315 11.0277 240.507 11.725C241.61 12.0701 242.468 12.4474 243.038 12.7496C243.609 13.0499 243.904 13.2502 243.888 13.2806" fill="#33535F"/>
<path d="M221.605 22.2965C221.752 21.5563 221.62 20.7911 221.487 20.0473C220.958 17.065 220.329 13.8861 218.205 11.7281C217.829 11.3472 217.348 10.9843 216.817 11.0469C215.975 11.1435 215.623 12.218 215.759 13.0547C215.893 13.8915 216.315 14.696 216.242 15.5399L217.665 21.5706C217.745 22.2321 217.976 22.8955 218.434 23.38C218.891 23.8645 219.603 24.1381 220.246 23.9629C220.974 23.7608 221.46 23.0385 221.605 22.2965" fill="#33535F"/>
<path d="M216.091 64.6001C218.461 57.9901 220.804 51.3283 222 44.4108C223.194 37.4916 223.201 30.2415 220.952 23.5904C220.611 22.5821 217.648 15.7969 216.588 15.8702C215.83 15.922 217.589 22.2209 217.187 22.8663C213.348 29.0293 212.132 36.5422 212.499 43.794C212.865 51.0458 214.176 57.5968 216.091 64.6001" fill="#17282F"/>
<path d="M215.051 98.9187L217.582 37.8449C218.678 20.2696 209.365 4.98279 191.765 4.37311L189.854 4.41781C173.61 4.80221 160.387 17.5948 159.464 33.8149C158.59 49.1267 157.819 66.1299 158.116 74.3383C158.724 91.2234 175.682 93.4494 175.682 93.4494C175.72 93.4512 175.661 97.365 175.563 102.325C175.563 102.325 176.739 111.945 192.476 112.405C208.221 112.863 215.051 98.9187 215.051 98.9187" fill="#9D575A"/>
<path d="M175.682 93.4487C175.682 93.4487 186.345 93.8206 197.523 86.4257C197.523 86.4257 192.453 98.8375 175.559 97.7165L175.682 93.4487" fill="#773C3E"/>
<path d="M169.299 48.4922C169.287 49.7688 170.352 50.8326 171.684 50.8719C173.015 50.9113 174.105 49.9136 174.12 48.6388C174.136 47.364 173.068 46.2966 171.738 46.2573C170.408 46.2179 169.316 47.2192 169.299 48.4922Z" fill="#17282F"/>
<path d="M163.224 40.1116C163.529 40.4191 165.324 39.0227 167.922 38.9673C170.513 38.8761 172.451 40.167 172.725 39.8416C172.86 39.6986 172.542 39.1372 171.697 38.5525C170.865 37.9714 169.46 37.419 167.844 37.4637C166.227 37.512 164.881 38.1395 164.112 38.767C163.331 39.3982 163.072 39.9739 163.224 40.1116" fill="#17282F"/>
<path d="M192.133 48.494C192.117 49.7688 193.186 50.8326 194.516 50.8719C195.845 50.9113 196.937 49.9136 196.951 48.6388C196.966 47.364 195.898 46.2984 194.57 46.2573C193.238 46.2179 192.147 47.2192 192.133 48.494" fill="#17282F"/>
<path d="M188.675 41.0178C188.982 41.3253 190.781 39.929 193.374 39.8736C195.968 39.7824 197.904 41.0732 198.178 40.7478C198.312 40.603 197.997 40.0434 197.152 39.4588C196.32 38.8777 194.915 38.3252 193.297 38.3699C191.68 38.4182 190.334 39.0457 189.565 39.6733C188.784 40.3044 188.525 40.8802 188.675 41.0178" fill="#17282F"/>
<path d="M179.837 61.6334C179.846 61.485 178.226 61.2437 175.603 60.9719C174.94 60.9201 174.307 60.8021 174.186 60.3533C174.018 59.8777 174.28 59.1572 174.583 58.3776C175.167 56.7596 175.779 55.061 176.422 53.2838C178.974 46.032 180.805 40.0764 180.511 39.9763C180.218 39.8761 177.912 45.6708 175.36 52.9227C174.747 54.7106 174.161 56.4145 173.605 58.0451C173.37 58.8049 172.959 59.6685 173.32 60.6554C173.512 61.1471 174.007 61.494 174.434 61.5995C174.863 61.7175 175.235 61.7157 175.562 61.7282C178.2 61.8069 179.83 61.78 179.837 61.6334" fill="#17282F"/>
<path d="M187.488 34.5441C187.844 35.2074 190.361 34.5047 193.429 34.4314C196.494 34.2973 199.054 34.8266 199.363 34.1436C199.497 33.8164 198.979 33.221 197.899 32.6882C196.826 32.1536 195.178 31.7352 193.34 31.796C191.5 31.8604 189.885 32.3879 188.852 32.994C187.81 33.6001 187.33 34.2294 187.488 34.5441" fill="#17282F"/>
<path d="M162.881 34.6151C163.428 35.189 165.49 34.5186 167.989 34.4184C170.483 34.245 172.616 34.6848 173.086 34.0555C173.29 33.7497 172.942 33.1687 171.999 32.6359C171.075 32.1067 169.536 31.6936 167.819 31.7884C166.103 31.8832 164.629 32.4589 163.778 33.0882C162.909 33.7176 162.638 34.3344 162.881 34.6151" fill="#17282F"/>
<path d="M216.499 50.3855C216.785 50.2531 228.025 46.6773 227.929 58.2344C227.836 69.7916 216.252 67.3135 216.234 66.981C216.218 66.6502 216.499 50.3855 216.499 50.3855Z" fill="#9D575A"/>
<path d="M219.801 62.6304C219.851 62.5946 220.001 62.7734 220.339 62.9325C220.67 63.0881 221.24 63.1971 221.844 62.9754C223.069 62.5374 224.113 60.6064 224.187 58.5253C224.224 57.4722 224.011 56.4692 223.647 55.6378C223.3 54.7885 222.758 54.1931 222.145 54.0787C221.533 53.9321 221.095 54.2986 220.952 54.6223C220.793 54.9441 220.865 55.1747 220.804 55.1944C220.772 55.223 220.557 54.9995 220.654 54.5221C220.704 54.2933 220.843 54.0215 221.115 53.8016C221.394 53.5781 221.803 53.4672 222.231 53.5173C223.121 53.5852 223.917 54.4113 224.321 55.3267C224.771 56.2439 225.034 57.3721 224.991 58.5521C224.898 60.8818 223.688 63.0505 222.014 63.5208C221.199 63.7246 220.523 63.4743 220.176 63.1989C219.819 62.9093 219.76 62.6518 219.801 62.6304" fill="#773C3E"/>
<path d="M167.248 15.0756C165.396 14.0118 171.112 8.05092 175.743 6.04308C182.743 3.01075 193.383 1.25143 199.758 3.17524C207.432 5.49418 213.772 9.43832 217.523 16.5239C221.276 23.6076 222.592 31.8089 222.231 39.817C222.12 42.2611 221.823 44.8035 220.482 46.8507C218.827 49.377 215.701 50.9343 215.778 54.4601C215.805 55.7492 215.415 57.0437 214.518 57.968C212.363 60.1815 209.814 58.0234 208.66 55.8851C206.197 51.3151 206.007 45.9067 205.871 40.7181C205.775 37.0278 205.689 33.2606 206.788 29.7402C207.386 27.8218 208.326 26.0178 208.818 24.0707C209.308 22.1237 209.286 19.9049 208.097 18.2886C207.902 18.0258 207.582 17.6914 207.175 17.3231C203.949 14.3998 199.385 13.463 195.256 14.8432C188.709 17.0352 177.538 20.2839 174.672 18.0257C170.553 14.7788 169.589 12.6906 169.589 12.6906L167.248 15.0756" fill="#17282F"/>
<path d="M199.179 1.59552C192.866 -0.635816 185.634 -0.648309 179.641 2.33395C176.456 3.91627 173.562 6.48548 172.542 9.88969C171.522 13.2957 172.911 17.5313 176.179 18.9259L176.403 19.0725C181.305 20.8157 184.522 20.2114 189.467 18.5933C193.627 17.2309 197.348 14.7421 201.516 13.4012C205.946 11.9744 210.804 11.9154 215.267 13.2349C210.935 8.13041 205.494 3.82864 199.179 1.59552" fill="#17282F"/>
<path d="M213.982 11.523C213.955 11.5659 213.477 11.2601 212.544 10.8918C211.613 10.5217 210.189 10.1445 208.398 10.123C206.608 10.089 204.475 10.452 202.262 11.3156C200.041 12.1577 197.754 13.4593 195.384 14.8825C193.013 16.3057 190.723 17.6609 188.477 18.5799C186.242 19.5204 184.061 19.9834 182.223 20.0246C180.381 20.08 178.901 19.7546 177.941 19.3988C177.46 19.2289 177.099 19.0573 176.864 18.925C176.627 18.7962 176.51 18.7194 176.517 18.7015C176.539 18.5745 178.584 19.844 182.207 19.6401C183.996 19.5472 186.101 19.0644 188.282 18.1168C190.472 17.1907 192.732 15.839 195.105 14.4122C197.477 12.9891 199.803 11.6803 202.085 10.8435C204.357 9.98713 206.569 9.65101 208.409 9.73683C210.25 9.80835 211.702 10.2571 212.626 10.6969C213.093 10.9097 213.436 11.1135 213.658 11.2673C213.88 11.4193 213.992 11.5069 213.982 11.523" fill="#33535F"/>
<path d="M209.161 7.65643C209.13 7.78516 207.291 6.60693 203.987 6.68023C202.356 6.7142 200.414 7.07 198.398 7.84954C196.377 8.62193 194.307 9.83591 192.213 11.2305C190.119 12.6287 188.169 14.0483 186.286 15.1961C184.414 16.3511 182.617 17.229 181.037 17.7797C179.456 18.3304 178.114 18.57 177.184 18.6397C176.717 18.6719 176.358 18.6844 176.111 18.6683C175.864 18.6611 175.737 18.6468 175.737 18.629C175.721 18.5145 177.827 18.6093 180.904 17.4185C182.437 16.8303 184.184 15.9345 186.022 14.7706C187.867 13.612 189.803 12.1853 191.911 10.7764C194.021 9.37288 196.134 8.14814 198.219 7.37755C200.3 6.60516 202.302 6.27975 203.983 6.29405C205.666 6.31193 207.006 6.64447 207.875 6.98954C208.31 7.16654 208.637 7.31853 208.85 7.44726C209.063 7.56705 209.17 7.63855 209.161 7.65643" fill="#33535F"/>
<path d="M220.951 22.5803C220.987 22.591 220.917 22.9039 220.758 23.4617C220.608 24.0249 220.32 24.817 219.905 25.7699C219.081 27.6777 217.604 30.1951 215.441 32.5408C213.27 34.8777 210.874 36.544 209.036 37.5131C208.117 38.0012 207.35 38.3498 206.801 38.5429C206.254 38.7431 205.95 38.8379 205.936 38.8022C205.898 38.7146 207.082 38.2246 208.847 37.1769C210.61 36.1381 212.914 34.4593 215.04 32.1689C217.159 29.8714 218.655 27.4452 219.556 25.6073C220.463 23.7675 220.858 22.5499 220.951 22.5803" fill="#33535F"/>
<path d="M222.26 30.758C222.29 30.7598 222.293 31.0619 222.206 31.6001C222.125 32.1383 221.913 32.9071 221.503 33.7957C220.7 35.5782 218.907 37.747 216.347 39.2918C213.794 40.8401 211.201 41.6178 209.352 42.1274C207.491 42.6262 206.324 42.8533 206.304 42.7871C206.283 42.7084 207.418 42.3473 209.242 41.7591C211.055 41.1565 213.586 40.3305 216.063 38.8269C218.537 37.3304 220.295 35.2957 221.156 33.624C222.043 31.9487 222.154 30.7347 222.26 30.758" fill="#33535F"/>
<path d="M182.182 3.54798C182.237 3.60519 181.556 4.3186 180.498 5.49684C179.452 6.67509 178.014 8.345 176.974 10.4923C175.938 12.6378 175.676 14.8441 175.856 16.3835C176.021 17.9372 176.5 18.8223 176.405 18.8616C176.376 18.8759 176.228 18.6739 176.029 18.268C175.831 17.8621 175.611 17.2381 175.475 16.4354C175.184 14.837 175.398 12.4983 176.482 10.2563C177.567 8.01958 179.09 6.35326 180.217 5.23044C181.359 4.10941 182.133 3.49792 182.182 3.54798" fill="#33535F"/>
<path d="M174.064 8.94309C174.23 8.98064 173.249 11.3621 173.896 14.3158C174.484 17.2837 176.336 19.0717 176.199 19.1736C176.156 19.2183 175.634 18.8518 175.004 18.0454C174.371 17.2444 173.687 15.9661 173.363 14.4267C173.043 12.8872 173.161 11.4408 173.418 10.4557C173.676 9.46337 174.007 8.91806 174.064 8.94309" fill="#33535F"/>
<path d="M222.991 66.8593C222.857 66.8522 222.835 67.6317 222.451 68.7152C222.254 69.2462 221.915 69.8434 221.33 70.1902C220.77 70.5406 219.926 70.5746 219.222 70.2224C218.519 69.8791 218.07 69.1711 217.902 68.4864C217.722 67.7926 217.824 67.1239 218.008 66.5929C218.392 65.522 218.988 65.0053 218.891 64.9105C218.846 64.8336 218.074 65.1876 217.464 66.3659C217.178 66.9434 216.976 67.7658 217.153 68.6508C217.318 69.518 217.867 70.4799 218.852 70.968C219.808 71.4436 220.958 71.3774 221.743 70.8375C222.53 70.3029 222.866 69.5019 223.012 68.8886C223.288 67.6228 223.082 66.8557 222.991 66.8593Z" fill="#17282F"/>
<path d="M226.88 63.7565C226.79 63.8423 227.141 64.232 227.01 64.915C226.953 65.2422 226.767 65.6284 226.445 65.8573C226.134 66.0861 225.642 66.1469 225.172 65.9932C224.169 65.6874 223.86 64.6504 223.929 63.9442C223.98 63.2183 224.25 62.7856 224.144 62.7123C224.078 62.6426 223.59 62.9716 223.35 63.8441C223.241 64.2732 223.211 64.8417 223.443 65.43C223.667 66.0236 224.221 66.5617 224.915 66.7834C225.605 67.0141 226.404 66.9068 226.921 66.458C227.434 66.0128 227.6 65.4193 227.597 64.958C227.573 63.9657 226.905 63.651 226.88 63.7565" fill="#17282F"/>
<path d="M227.672 56.0963C227.647 56.2214 228.117 56.3448 228.557 56.8579C229.011 57.3496 229.304 58.3008 228.732 59.1179C228.192 59.9582 227.2 60.0494 226.574 59.817C225.932 59.6042 225.639 59.218 225.535 59.2877C225.442 59.3163 225.564 59.901 226.329 60.3516C226.703 60.5607 227.23 60.718 227.831 60.6269C228.437 60.541 229.041 60.1513 229.422 59.5827C229.805 59.0124 229.935 58.3044 229.785 57.7126C229.64 57.1226 229.295 56.6934 228.959 56.427C228.251 55.8924 227.665 55.9997 227.672 56.0963" fill="#17282F"/>
<path d="M184.917 63.9327C184.529 63.9184 184.59 66.5056 182.424 68.3972C180.265 70.296 177.5 70.0778 177.491 70.439C177.458 70.6035 178.117 70.9253 179.281 70.9271C180.422 70.936 182.079 70.5266 183.404 69.368C184.725 68.2095 185.267 66.6915 185.326 65.6295C185.398 64.546 185.092 63.913 184.917 63.9327" fill="#17282F"/>
<path d="M172.605 87.4818C172.353 87.4693 172.203 86.3626 172.496 85.0431C172.786 83.7254 173.386 82.7831 173.621 82.8779C173.862 82.9762 173.674 84.0079 173.404 85.2451C173.129 86.4788 172.868 87.4943 172.605 87.4818Z" fill="#17282F"/>
<path d="M175.757 87.902C175.501 87.8519 175.457 87.0098 175.505 86.0068C175.559 85.0038 175.691 84.1724 175.948 84.1473C176.202 84.1223 176.492 84.977 176.435 86.0551C176.381 87.1332 176.004 87.9538 175.757 87.902Z" fill="#17282F"/>
<path d="M178.629 88.1073C178.371 88.0948 178.208 87.1972 178.264 86.103C178.317 85.0088 178.571 84.1327 178.831 84.1452C179.086 84.1577 179.249 85.0553 179.194 86.1495C179.138 87.2437 178.886 88.1198 178.629 88.1073Z" fill="#17282F"/>
<path d="M182.373 87.2841C182.119 87.3306 181.767 86.5779 181.585 85.6017C181.399 84.6237 181.454 83.7941 181.708 83.7458C181.962 83.6993 182.316 84.452 182.498 85.4282C182.682 86.4062 182.627 87.2358 182.373 87.2841Z" fill="#17282F"/>
<path d="M167.136 103.722L177.068 98.839L214.841 99.4988L221.95 103.722L214.841 119.627L194.543 123.092H178.958L170.283 110.965L167.136 103.722Z" fill="#9D575A"/>
<path d="M140.551 107.286C140.551 107.286 128.395 109.157 123.717 117.572C119.044 125.988 115.615 142.197 115.615 142.197C115.615 142.197 110.315 149.989 109.693 160.588C109.693 160.588 114.76 154.384 125.121 154.354C136.09 154.321 149.591 166.51 149.591 166.51L140.551 107.286Z" fill="#3588D4"/>
<path d="M140.551 107.287L162.993 102.61L174.168 99.5706C174.168 99.5706 169.228 119.132 194.164 118.508C219.1 117.886 217.223 99.5706 217.223 99.5706C217.223 99.5706 237.137 105.29 238.115 105.417C239.924 105.651 255.259 109.469 255.259 109.469L249.647 149.99L249.96 215.448C249.96 215.448 254.011 260.645 255.259 269.998V284.123C255.259 284.123 225.585 284.123 181.226 284.123C156.52 284.123 131.252 284.123 131.252 284.123C131.252 284.123 134.006 260.332 135.563 244.747C137.122 229.163 141.799 218.564 141.799 218.564C141.799 218.564 137.746 120.379 138.057 119.443C138.37 118.508 140.551 107.287 140.551 107.287Z" fill="#3588D4"/>
<path d="M216.358 195.121H172.725V151.489H216.358V195.121Z" fill="#D3D2EC"/>
<path d="M255.259 109.469C255.259 109.469 260.316 108.806 266.802 120.012C273.291 131.217 276.042 146.749 276.042 146.749L277.811 162.279C277.811 162.279 261.299 145.766 243.604 159.329L248.322 142.424C248.322 142.424 244.393 129.646 247.339 120.602C250.287 111.559 255.259 109.469 255.259 109.469" fill="#3588D4"/>
<path d="M139.693 224.412L139.695 224.405C139.695 224.407 139.693 224.409 139.693 224.412ZM140.868 220.94C140.834 220.135 141.132 219.47 141.644 218.93C141.484 219.313 141.213 219.992 140.868 220.94Z" fill="#A7A9A8"/>
<path d="M205.564 236.432C200.027 236.432 194.473 236.142 188.945 235.853C181.677 235.47 174.305 235.07 167.402 232.77C163.142 231.353 159.076 229.216 154.631 228.571C151.647 228.136 148.586 228.392 145.627 227.804C142.672 227.217 140.578 227.296 139.693 224.414C139.693 224.41 139.695 224.408 139.695 224.407L140.875 221.06C140.871 221.02 140.869 220.981 140.868 220.942C141.213 219.994 141.484 219.315 141.644 218.932C142.832 217.673 145.168 217.092 147.077 216.981C153.192 216.634 159.303 216.479 165.418 216.479C193.636 216.479 221.846 219.812 249.91 223.142C241.936 230.219 231.435 233.949 220.879 235.458C215.805 236.184 210.69 236.432 205.564 236.432" fill="#0065C1"/>
<path d="M109.694 160.587C109.617 162.157 108.172 186.725 109.694 196.796C111.212 206.868 112.49 212.936 116.003 214.531C119.517 216.129 126.354 216.129 129.642 217.408C132.93 218.682 141.553 224.751 158.479 221.877C175.405 219.002 198.078 202.716 205.105 201.438C212.131 200.161 218.838 199.841 218.838 199.841L237.609 195.629L239.916 180.36C239.916 180.36 200.313 180.998 194.247 181.638C188.178 182.277 179.235 184.832 161.352 183.873C143.468 182.917 148.259 182.597 148.259 182.597L149.591 166.509C149.591 166.509 138.98 155.871 127.493 154.542C116.003 153.216 109.694 160.587 109.694 160.587" fill="#9D575A"/>
<path d="M137.989 182.59C137.122 181.408 137.001 178.762 138.129 177.828C136.668 176.312 135.554 174.464 134.898 172.461C134.506 171.265 134.333 169.797 135.197 168.882C134.608 167.959 134.02 166.994 133.85 165.912C133.684 164.828 134.036 163.591 134.975 163.026C136.305 162.223 138.007 163.087 139.221 164.058C140.512 165.089 141.689 166.266 142.72 167.555C141.846 166.711 142.277 165.079 143.326 164.467C144.376 163.856 145.738 164.076 146.807 164.65C148.871 165.753 150.741 167.88 151.919 169.901C154.765 174.776 158.888 179.482 162.405 183.898" fill="#9D575A"/>
<path d="M162.405 183.898C162.353 183.939 161.754 183.283 160.699 182.071C159.646 180.855 158.123 179.099 156.323 176.848C155.425 175.722 154.461 174.469 153.485 173.078C152.468 171.721 151.622 170.052 150.531 168.59C149.414 167.14 147.984 165.701 146.239 164.882C145.384 164.519 144.365 164.415 143.598 164.848C142.879 165.218 142.477 166.344 142.877 167.006L143.044 167.22L142.357 167.846C141.447 166.711 140.444 165.684 139.377 164.782C138.345 163.886 137.145 163.112 135.999 163.163C134.844 163.197 134.172 164.394 134.24 165.513C134.29 166.643 134.923 167.692 135.532 168.668L135.701 168.935L135.486 169.155C134.901 169.756 134.878 170.735 135.044 171.586C135.22 172.448 135.55 173.281 135.888 174.027C136.584 175.527 137.463 176.727 138.309 177.653L138.495 177.853L138.29 178.023C137.751 178.466 137.587 179.212 137.517 179.795C137.463 180.399 137.512 180.925 137.592 181.341C137.753 182.176 138.037 182.557 137.989 182.589C137.968 182.618 137.59 182.269 137.333 181.404C137.206 180.977 137.109 180.424 137.127 179.768C137.177 179.131 137.263 178.296 137.968 177.633L137.946 178.001C137.027 177.084 136.064 175.867 135.289 174.315C134.909 173.533 134.549 172.706 134.326 171.733C134.129 170.805 134.056 169.557 134.909 168.61L134.864 169.096C134.238 168.116 133.487 166.999 133.391 165.55C133.358 164.841 133.503 164.091 133.931 163.441C134.351 162.783 135.13 162.314 135.937 162.273C137.569 162.21 138.871 163.16 139.97 164.077C141.086 165.014 142.135 166.081 143.083 167.263L142.398 167.889L142.076 167.48C141.39 166.173 142.019 164.69 143.149 164.036C144.29 163.417 145.584 163.61 146.598 164.043C148.608 165.009 150.043 166.53 151.216 168.075C152.377 169.679 153.135 171.27 154.122 172.639C155.058 174.034 155.983 175.3 156.843 176.446C158.504 178.615 159.895 180.426 160.98 181.842C161.949 183.126 162.453 183.861 162.405 183.898" fill="#773C3E"/>
<path d="M154.669 182.31C154.465 182.469 151.391 179.033 147.803 174.64C144.215 170.245 141.465 166.548 141.66 166.38C141.856 166.212 144.93 169.646 148.525 174.052C152.121 178.455 154.871 182.155 154.669 182.31Z" fill="#773C3E"/>
<path d="M146.115 180.282C145.938 180.455 143.285 178.117 140.226 175C137.156 171.888 134.993 169.05 135.196 168.882C135.391 168.725 137.837 171.251 140.893 174.35C143.939 177.455 146.305 180.094 146.115 180.282Z" fill="#773C3E"/>
<path d="M142.746 182.735C142.559 182.912 141.373 181.953 140.098 180.602C138.824 179.245 137.94 178.004 138.128 177.829C138.316 177.652 139.5 178.606 140.776 179.962C142.051 181.317 142.932 182.558 142.746 182.735Z" fill="#773C3E"/>
<path d="M163.994 183.993C163.991 184.122 161.72 184.125 158.049 184.027C156.124 183.961 153.957 183.886 151.6 183.803C149.186 183.716 146.481 183.61 143.723 183.283C140.953 183.029 138.307 182.945 135.934 183.192C133.56 183.426 131.468 183.982 129.813 184.685C128.164 185.393 126.902 186.169 126.156 186.85C125.371 187.488 124.908 187.83 124.862 187.785C124.815 187.744 125.189 187.317 125.92 186.575C126.612 185.792 127.864 184.899 129.543 184.082C131.23 183.274 133.39 182.629 135.84 182.337C138.291 182.037 141.003 182.1 143.805 182.355C146.606 182.688 149.228 182.811 151.657 182.947C154.005 183.101 156.163 183.242 158.078 183.367C161.734 183.635 163.996 183.866 163.994 183.993" fill="#773C3E"/>
<path d="M243.604 159.328C243.604 159.328 238.959 176.161 237.609 195.63L182.984 199.147L160.833 220.239C160.833 220.239 175.482 230.243 202.219 230.784C228.955 231.326 240.31 226.188 253.291 225.646C266.271 225.106 270.868 222.401 273.301 214.019C275.736 205.637 277.723 179.045 277.81 173.547C277.9 168.048 276.48 161.098 276.48 161.098C276.48 161.098 260.689 146.553 243.604 159.328" fill="#9D575A"/>
<path d="M238.161 195.658C237.914 195.668 237.573 191.528 237.922 186.425C238.261 181.322 239.159 177.265 239.4 177.308C239.665 177.351 239.186 181.437 238.853 186.489C238.504 191.538 238.431 195.652 238.161 195.658" fill="#773C3E"/>
<path d="M238.444 194.768C238.462 194.797 238.231 194.969 237.775 195.273C237.323 195.584 236.629 195.993 235.712 196.488C233.879 197.47 231.106 198.707 227.507 199.696C223.917 200.701 219.508 201.425 214.606 201.732C212.169 201.913 209.632 202.12 207.152 202.955C204.666 203.767 202.158 204.961 199.582 206.106C189.317 210.672 180.029 214.802 173.133 217.87C169.7 219.295 166.818 220.203 164.796 220.688C163.786 220.937 162.993 221.094 162.452 221.173C161.912 221.257 161.626 221.283 161.62 221.253C161.604 221.18 162.723 220.931 164.701 220.339C166.678 219.751 169.498 218.757 172.873 217.264C176.263 215.802 180.179 213.765 184.668 211.793C189.153 209.776 194.06 207.568 199.213 205.251C201.797 204.105 204.286 202.92 206.873 202.085C209.469 201.226 212.113 201.032 214.547 200.876C219.426 200.617 223.769 199.971 227.337 199.059C230.91 198.164 233.683 197.037 235.551 196.167C237.416 195.285 238.405 194.701 238.444 194.768" fill="#773C3E"/>
<path d="M253.189 201.016C253.026 201.246 249.942 199.086 245.637 197.536C241.342 195.949 237.595 195.613 237.618 195.332C237.607 195.099 241.505 195.019 245.957 196.662C250.416 198.271 253.348 200.846 253.189 201.016Z" fill="#773C3E"/>
<path d="M147.905 163.878C147.78 163.9 147.381 162.21 146.884 159.453C146.389 156.698 145.808 152.872 145.312 148.629C144.817 144.383 144.502 140.526 144.352 137.73C144.2 134.933 144.198 133.199 144.325 133.19C144.456 133.181 144.69 134.898 145.008 137.674C145.361 140.782 145.777 144.458 146.237 148.522C146.725 152.579 147.165 156.251 147.536 159.357C147.864 162.133 148.034 163.857 147.905 163.878" fill="#17282F"/>
<path d="M243.604 159.329C243.466 159.304 243.723 157.402 244.083 154.326C244.44 151.251 244.828 146.998 245.152 142.281C245.477 137.563 245.808 133.273 246.264 130.193C246.702 127.109 247.179 125.237 247.294 125.258C247.432 125.283 247.187 127.186 246.918 130.268C246.631 133.349 246.405 137.618 246.082 142.347C245.756 147.074 245.261 151.353 244.735 154.419C244.206 157.487 243.72 159.35 243.604 159.329Z" fill="#17282F"/>
<path d="M144.594 126.545C144.318 126.607 143.5 123.024 141.367 119.101C139.271 115.157 136.734 112.497 136.938 112.302C137.081 112.118 140.008 114.567 142.187 118.66C144.397 122.735 144.826 126.527 144.594 126.545" fill="#17282F"/>
<path d="M220.25 101.698C220.28 101.701 220.28 101.962 220.25 102.463C220.216 102.963 220.13 103.704 219.903 104.632C219.493 106.491 218.462 109.137 216.391 111.883C214.351 114.64 211.165 117.381 207.096 119.389C203.039 121.424 198.188 122.729 193.057 123.498C190.488 123.88 187.886 124.057 185.414 123.623C182.95 123.212 180.67 122.32 178.725 121.118C174.781 118.744 172.285 115.17 171.125 111.951C169.925 108.706 169.871 105.855 170.032 103.965C170.132 103.015 170.268 102.286 170.395 101.8C170.524 101.315 170.606 101.066 170.637 101.074C170.721 101.09 170.477 102.116 170.395 103.988C170.345 105.847 170.502 108.613 171.74 111.714C172.939 114.792 175.376 118.152 179.168 120.383C181.039 121.513 183.222 122.345 185.56 122.724C187.901 123.122 190.395 122.952 192.919 122.577C197.985 121.817 202.746 120.558 206.719 118.619C210.7 116.704 213.82 114.109 215.871 111.479C217.947 108.864 219.045 106.332 219.554 104.539C220.078 102.738 220.16 101.687 220.25 101.698" fill="#17282F"/>
<path d="M191.439 126.771C184.023 126.771 176.371 124.216 175.843 118.963C176.612 119.667 177.463 120.327 178.4 120.919C179.278 121.559 180.236 122.068 181.261 122.422C182.56 122.968 183.955 123.381 185.414 123.624C186.431 123.803 187.468 123.878 188.518 123.878C190.02 123.878 191.545 123.724 193.057 123.499C198.189 122.73 203.039 121.425 207.096 119.39C209.792 118.06 212.102 116.406 213.947 114.639C213.059 117.584 210.502 119.706 207.965 121.535C205.251 123.493 200.64 125.51 197.366 126.191C195.51 126.577 193.485 126.771 191.439 126.771V126.771ZM193.322 122.517C193.367 122.508 193.413 122.499 193.458 122.49C196.261 121.932 199.127 121.342 201.9 120.538C199.222 121.401 196.327 122.049 193.322 122.517" fill="#0065C1"/>
<path d="M188.518 123.877C187.468 123.877 186.431 123.802 185.414 123.623C183.955 123.38 182.56 122.967 181.26 122.422C182.078 122.704 182.938 122.888 183.833 122.962C184.926 123.051 186.007 123.099 187.086 123.099C189.172 123.099 191.239 122.92 193.322 122.516C196.327 122.048 199.222 121.401 201.9 120.537C206.456 119.214 210.759 117.31 214.106 114.018C214.062 114.229 214.008 114.435 213.947 114.639C212.102 116.405 209.792 118.059 207.096 119.389C203.039 121.424 198.189 122.729 193.057 123.498C191.545 123.723 190.019 123.877 188.518 123.877V123.877ZM178.4 120.918C177.463 120.326 176.612 119.666 175.843 118.962C175.823 118.771 175.814 118.578 175.814 118.379C176.571 119.359 177.438 120.217 178.4 120.918" fill="#0F191D"/>
</svg>
