<svg width="100" height="100" viewBox="0 0 100 100" fill="none" xmlns="http://www.w3.org/2000/svg">
<rect width="100" height="100" rx="50" fill="#F7F8FE"/>
<path d="M61.5959 74.0837V69.167H68.5534V61.792H73.1918V70.3962C73.1918 71.3549 72.8207 72.2153 72.125 72.9528C71.4292 73.6903 70.6175 74.0837 69.713 74.0837H61.5959ZM38.404 74.0837H30.2869C29.3824 74.0837 28.5707 73.6903 27.8749 72.9528C27.1792 72.2153 26.8081 71.3549 26.8081 70.3962V61.792H31.4465V69.167H38.404V74.0837ZM61.5959 24.917H69.713C70.6175 24.917 71.4292 25.3103 72.125 26.0478C72.8207 26.7853 73.1918 27.6457 73.1918 28.6045V37.2087H68.5534V29.8337H61.5959V24.917ZM38.404 24.917V29.8337H31.4465V37.2087H26.8081V28.6045C26.8081 27.6457 27.1792 26.7853 27.8749 26.0478C28.5707 25.3103 29.3824 24.917 30.2869 24.917H38.404ZM46.5212 34.7503C52.3191 34.7503 56.9575 39.667 56.9575 45.8128C56.9575 47.9762 56.3777 49.992 55.3573 51.7128L62.9178 59.727L59.6477 63.1932L52.0872 55.1791C50.4638 56.2607 48.562 56.8753 46.5212 56.8753C40.7232 56.8753 36.0848 51.9587 36.0848 45.8128C36.0848 39.667 40.7232 34.7503 46.5212 34.7503ZM46.5212 39.667C44.9834 39.667 43.5087 40.3145 42.4214 41.4671C41.3341 42.6196 40.7232 44.1828 40.7232 45.8128C40.7232 47.4428 41.3341 49.006 42.4214 50.1586C43.5087 51.3111 44.9834 51.9587 46.5212 51.9587C48.0589 51.9587 49.5336 51.3111 50.6209 50.1586C51.7083 49.006 52.3191 47.4428 52.3191 45.8128C52.3191 44.1828 51.7083 42.6196 50.6209 41.4671C49.5336 40.3145 48.0589 39.667 46.5212 39.667Z" fill="#4540DB"/>
</svg>
