<svg width="380" height="293" viewBox="0 0 380 293" fill="none" xmlns="http://www.w3.org/2000/svg">
<path d="M351.392 0.396484L0.400879 0.396484L0.400879 253.939H351.392V0.396484Z" fill="#B5B4DF" fill-opacity="0.6"/>
<path d="M351.392 253.939C351.392 251.272 351.269 154.037 351.068 0.396257L351.392 0.716311C252.894 0.731552 131.506 0.762032 0.431873 0.792513H0.401024L0.802055 0.396257C0.786631 91.3675 0.771206 177.599 0.771206 253.939L0.401024 253.574C208.056 253.802 348.169 253.939 351.392 253.939C348.169 253.939 208.056 254.092 0.401024 254.305H0.0308489V253.939C0.0154248 177.599 0 91.3675 0 0.396257L0 0L0.401024 0L0.431873 0C131.506 0.0304812 252.894 0.0457236 351.392 0.0762049H351.716V0.396257C351.516 154.037 351.392 251.272 351.392 253.939Z" fill="#263238"/>
<path d="M352.58 37.294C352.58 37.5075 274.179 37.6906 177.485 37.6906C80.7609 37.6906 2.37549 37.5075 2.37549 37.294C2.37549 37.0805 80.7609 36.8975 177.485 36.8975C274.164 36.8975 352.58 37.0805 352.58 37.294Z" fill="#E0E0E0"/>
<path d="M22.9047 18.0596C22.9047 20.9401 20.5448 23.2871 17.6142 23.2871C14.699 23.2871 12.3237 20.9553 12.3237 18.0596C12.3237 15.1791 14.6836 12.832 17.6142 12.832C20.5448 12.832 22.9047 15.1791 22.9047 18.0596Z" fill="#ED6A5E"/>
<path d="M38.8378 18.0596C38.8378 20.9401 36.4779 23.2872 33.5473 23.2872C30.6322 23.2872 28.2568 20.9554 28.2568 18.0596C28.2568 15.1791 30.6167 12.832 33.5473 12.832C36.4625 12.832 38.8378 15.1791 38.8378 18.0596Z" fill="#F4BD4F"/>
<path d="M54.7557 18.0596C54.7557 20.9401 52.3959 23.2871 49.4653 23.2871C46.5501 23.2871 44.1748 20.9553 44.1748 18.0596C44.1748 15.1791 46.5347 12.832 49.4653 12.832C52.3959 12.832 54.7557 15.1791 54.7557 18.0596Z" fill="#63C555"/>
<path d="M287.625 210.757C287.625 210.757 295.253 200.897 298.841 200.503C302.428 200.109 324.888 200.897 328.049 200.503C331.211 200.109 348.97 192.707 348.97 192.707C348.97 192.707 352.131 193.753 351.733 196.551C351.334 199.335 331.596 209.874 329.231 210.255C326.867 210.648 307.913 212.02 307.913 212.02L303.157 220.509L287.625 210.757Z" fill="#A5695F"/>
<path d="M222.225 86.4565C226.073 84.7588 228.864 80.9016 229.249 76.7591C229.634 72.6031 227.613 68.3249 224.135 65.9616L210.28 61.3574C208.273 79.0273 206.157 96.6836 203.902 114.34C207.627 114.15 211.476 113.539 214.541 111.433C217.606 109.328 219.627 105.389 218.486 101.885C221.51 100.88 223.929 98.259 224.671 95.2031C225.414 92.1201 224.452 88.7111 222.225 86.4565Z" fill="#263238"/>
<path d="M154.282 76.0935L154.804 69.8052L193.717 66.4776C205.607 66.4369 217.139 79.3668 216.672 91.115C216.163 104.167 215.008 120.071 212.452 129.592C207.311 148.729 191.971 149.68 191.971 149.68L190.597 168.966C189.566 180.212 179.738 181.719 168.371 180.714C157.251 179.736 148.921 170.215 149.553 159.187L154.282 76.0935Z" fill="#A5695F"/>
<path d="M210.513 104.97C210.431 106.287 209.221 107.306 207.819 107.238C206.417 107.17 205.359 106.043 205.455 104.725C205.537 103.408 206.747 102.389 208.149 102.457C209.537 102.512 210.596 103.639 210.513 104.97Z" fill="#263238"/>
<path d="M211.652 98.9658C211.309 99.2646 209.536 97.662 206.814 97.404C204.106 97.1052 201.962 98.2732 201.701 97.9201C201.577 97.7571 201.948 97.2002 202.883 96.6706C203.804 96.1409 205.316 95.6791 207.02 95.8557C208.711 96.0322 210.072 96.7928 210.828 97.5126C211.611 98.2189 211.831 98.83 211.652 98.9658Z" fill="#263238"/>
<path d="M185.126 103.379C185.044 104.697 183.834 105.715 182.432 105.647C181.03 105.579 179.972 104.452 180.068 103.135C180.151 101.817 181.36 100.799 182.762 100.866C184.15 100.934 185.209 102.062 185.126 103.379Z" fill="#263238"/>
<path d="M184.906 96.7794C184.563 97.0782 182.79 95.4756 180.068 95.2175C177.36 94.9187 175.216 96.0868 174.955 95.7336C174.831 95.5706 175.202 95.0138 176.137 94.4841C177.058 93.9544 178.57 93.4926 180.26 93.6692C181.951 93.8457 183.312 94.6063 184.068 95.3262C184.851 96.0188 185.071 96.6436 184.906 96.7794Z" fill="#263238"/>
<path d="M192.7 117.682C192.7 117.532 194.418 117.41 197.194 117.342C197.895 117.342 198.569 117.274 198.734 116.812C198.954 116.337 198.734 115.563 198.486 114.734C198.005 113.009 197.497 111.203 196.975 109.302C194.899 101.587 193.456 95.2581 193.772 95.1766C194.088 95.0951 196.026 101.288 198.115 109.003C198.61 110.904 199.091 112.724 199.545 114.449C199.724 115.25 200.081 116.188 199.627 117.179C199.394 117.668 198.844 117.994 198.377 118.062C197.923 118.157 197.524 118.116 197.181 118.103C194.404 117.994 192.7 117.831 192.7 117.682Z" fill="#263238"/>
<path d="M191.971 149.748C191.971 149.748 177.965 149.15 165.649 140.037C165.649 140.037 170.886 154.325 191.449 154.597L191.971 149.748Z" fill="#83534B"/>
<path d="M186.295 89.2555C185.951 89.9617 183.271 89.3369 180.04 89.3913C176.81 89.3913 174.144 90.0432 173.786 89.3505C173.635 89.0246 174.144 88.3726 175.257 87.775C176.357 87.1774 178.075 86.6749 180.013 86.6477C181.951 86.6342 183.669 87.1095 184.783 87.6935C185.91 88.2911 186.446 88.9159 186.295 89.2555Z" fill="#263238"/>
<path d="M212.534 89.7438C211.998 90.3007 210.184 89.4858 207.943 89.2277C205.703 88.8882 203.751 89.2141 203.366 88.535C203.201 88.2091 203.572 87.6251 204.466 87.1361C205.346 86.6472 206.761 86.3076 208.315 86.5114C209.854 86.7151 211.132 87.4078 211.861 88.1004C212.576 88.8203 212.768 89.4722 212.534 89.7438Z" fill="#263238"/>
<path d="M225.386 74.3956C229.62 72.141 232.039 67.1158 231.434 62.4029C230.829 57.6901 227.393 53.5204 222.953 51.6869C222.046 51.3202 221.111 51.0622 220.149 50.872C218.404 49.6089 216.356 48.7804 214.211 48.5224C214.17 45.9826 212.108 43.8095 209.703 42.9131C207.311 42.0031 204.645 42.1254 202.102 42.4377C199.902 39.0966 196.04 36.8692 192.013 36.6383C187.985 36.4074 183.889 38.1731 181.319 41.2425C178.693 39.3139 175.12 38.7028 171.986 39.6399C168.852 40.577 166.227 43.0353 165.099 46.0776C162.24 45.8603 159.326 46.879 157.223 48.8076C156.44 49.5274 155.766 50.3831 155.244 51.3066C154.241 52.3524 153.443 53.5884 152.976 54.9601C148.151 55.0009 143.506 58.2469 141.884 62.7289C140.248 67.2244 141.732 72.6436 145.43 75.713C142.805 77.7911 141.251 81.1322 141.361 84.4597C141.485 87.7872 143.258 91.0197 146.035 92.9075C144.523 96.303 144.509 100.31 145.993 103.719C146.639 105.185 147.698 106.625 149.127 107.25C149.169 107.508 149.237 107.766 149.361 108.01C150.351 109.953 153.333 109.45 155.175 108.282C159.67 105.43 162.433 100.527 164.151 95.5288C165.855 90.5307 166.694 85.2746 168.357 80.2493C168.398 80.1407 168.439 80.0185 168.481 79.8962C169.182 77.7911 170.364 75.9168 171.903 74.3549C173.333 75.5636 174.721 76.8267 176.316 77.8182C181.979 81.3495 190.02 80.6025 194.927 76.0798C198.638 79.8555 203.71 82.2866 209.002 82.8299C214.294 83.3732 219.641 82.925 224.053 79.9777C224.891 79.4209 226.06 78.4022 226.692 76.9354C227.118 76.0526 226.321 74.7895 225.386 74.3956Z" fill="#263238"/>
<path d="M154.806 102.144C154.559 101.981 144.649 97.0779 143.04 107.685C141.432 118.306 152.552 117.695 152.621 117.396C152.69 117.097 154.806 102.144 154.806 102.144Z" fill="#A5695F"/>
<path d="M149.938 112.9C149.897 112.859 149.732 113.009 149.388 113.104C149.059 113.199 148.509 113.212 147.986 112.927C146.914 112.343 146.227 110.428 146.461 108.5C146.584 107.535 146.928 106.639 147.382 105.933C147.821 105.199 148.412 104.737 149.004 104.724C149.595 104.683 149.952 105.077 150.034 105.389C150.131 105.702 150.034 105.906 150.089 105.933C150.117 105.96 150.351 105.783 150.323 105.335C150.309 105.118 150.227 104.846 150.007 104.602C149.773 104.357 149.416 104.194 149.017 104.181C148.179 104.113 147.327 104.765 146.818 105.539C146.268 106.313 145.856 107.318 145.718 108.405C145.471 110.55 146.268 112.723 147.753 113.389C148.481 113.701 149.141 113.566 149.512 113.362C149.883 113.145 149.979 112.914 149.938 112.9Z" fill="#83534B"/>
<path d="M231.077 60.583C231.091 60.583 231.104 60.6645 231.146 60.8411C231.187 61.0176 231.214 61.2757 231.242 61.6288C231.283 62.3215 231.256 63.3673 230.829 64.6304C230.417 65.8799 229.579 67.3603 228.067 68.5012C226.582 69.642 224.41 70.4298 222.032 70.1989L222.239 70.0495C221.4 73.051 219.558 76.2428 216.672 78.7961C215.228 80.0592 213.497 81.1594 211.504 81.7841C209.524 82.4496 207.297 82.4225 205.194 81.9743C203.105 81.5396 201.153 80.7519 199.38 79.7876C197.621 78.8097 195.985 77.696 194.762 76.2428L195.092 76.2835C192.026 78.5109 188.645 79.9098 185.47 80.195C182.267 80.4259 179.505 79.5839 177.443 78.5788C175.367 77.5466 173.965 76.3242 173.099 75.4414C172.659 74.9932 172.343 74.6265 172.151 74.3821C171.945 74.124 171.848 73.9882 171.862 73.9882C171.89 73.961 172.316 74.4907 173.209 75.3464C174.103 76.1884 175.518 77.3565 177.58 78.3343C179.614 79.2987 182.35 80.0864 185.442 79.8148C188.521 79.516 191.834 78.117 194.817 75.9304L194.995 75.7946L195.147 75.9711C196.315 77.3293 197.923 78.443 199.641 79.3801C201.373 80.3173 203.284 81.0914 205.318 81.5125C207.366 81.9471 209.483 81.9743 211.38 81.3495C213.29 80.7655 214.967 79.6925 216.383 78.4837C219.215 76.0119 221.043 72.9017 221.881 69.9816L221.922 69.8186L222.087 69.8322C224.342 70.0766 226.431 69.3432 227.888 68.2703C229.359 67.1973 230.197 65.7712 230.637 64.576C231.077 63.3537 231.146 62.3351 231.146 61.6424C231.104 60.9497 231.049 60.5966 231.077 60.583Z" fill="#526A76"/>
<path d="M154.597 54.5523C154.666 54.593 153.841 55.761 153.181 58.0835C152.535 60.3653 152.164 63.9644 153.704 67.7673L153.772 67.9303L153.621 68.0254C152.247 68.9354 151.01 70.3071 150.199 71.9913C149.401 73.6754 149.044 75.6719 149.401 77.6413C149.855 80.2354 151.367 82.5035 153.264 83.8753L153.443 84.0111L153.319 84.2013C151.903 86.2657 151.271 88.6018 151.216 90.6798C151.12 92.7714 151.546 94.6049 152.109 96.031C153.25 98.9103 154.79 100.119 154.68 100.187C154.666 100.201 154.583 100.119 154.419 99.9697C154.267 99.8067 154.006 99.5894 153.745 99.2634C153.181 98.6251 152.453 97.5929 151.834 96.1396C151.23 94.7 150.749 92.8121 150.817 90.6662C150.845 88.5203 151.477 86.1027 152.934 83.9296L152.989 84.2556C150.982 82.8295 149.401 80.4663 148.92 77.7363C148.549 75.6583 148.92 73.5532 149.773 71.8011C150.625 70.0491 151.917 68.623 153.374 67.6722L153.291 67.9303C151.752 63.9916 152.206 60.3109 152.934 58.002C153.305 56.834 153.731 55.9648 154.047 55.3807C154.199 55.0955 154.35 54.8782 154.446 54.7424C154.542 54.6202 154.597 54.5387 154.597 54.5523Z" fill="#526A76"/>
<path d="M146.943 116.282C147.025 116.323 146.558 116.975 146.475 118.17C146.448 118.74 146.558 119.474 147.011 120.071C147.465 120.655 148.303 121.09 149.142 120.981C149.994 120.872 150.544 120.126 150.722 119.406C150.915 118.672 150.791 117.952 150.612 117.382C150.228 116.241 149.843 115.562 149.925 115.521C149.966 115.494 150.448 116.092 150.942 117.273C151.162 117.857 151.355 118.645 151.162 119.501C151.066 119.922 150.887 120.37 150.544 120.737C150.214 121.103 149.733 121.389 149.21 121.456C148.138 121.592 147.176 121.049 146.654 120.343C146.118 119.609 146.063 118.781 146.132 118.143C146.31 116.852 146.915 116.255 146.943 116.282Z" fill="#263238"/>
<path d="M185.634 120.858C184.425 121.891 183.751 123.521 183.916 125.096C184.081 126.671 185.043 128.138 186.445 128.912C186.995 129.225 187.641 129.429 188.273 129.334C189.387 129.171 190.143 128.152 190.775 127.228C191.297 126.454 191.82 125.694 192.342 124.919C192.521 124.661 192.699 124.363 192.631 124.064C192.548 123.738 192.218 123.548 191.902 123.412C189.895 122.461 187.902 121.51 185.896 120.573" fill="#83534B"/>
<path d="M188.205 128.995C188.191 129.049 187.051 128.954 185.401 128.03C184.604 127.555 183.697 126.726 183.326 125.477C183.119 124.866 183.147 124.092 183.353 123.467C183.546 122.815 183.848 122.163 184.288 121.579C184.714 121.009 185.25 120.547 185.827 120.207L186.033 120.085L186.226 120.207C190.102 122.557 193.209 123.983 193.14 124.146C193.071 124.323 189.786 123.154 185.827 120.846H186.226C185.731 121.144 185.277 121.552 184.906 122.041C184.178 123.059 183.711 124.309 184.013 125.3C184.288 126.333 185.016 127.107 185.704 127.596C187.147 128.533 188.26 128.859 188.205 128.995Z" fill="#263238"/>
<path d="M44.4707 257.03C44.4707 257.03 83.576 187.763 90.0776 176.558C97.7337 163.383 104.4 158.603 110.407 155.723C116.688 152.722 123.644 151.296 130.626 151.255L150.021 151.119C150.021 151.119 157.388 162.012 167.381 164.144C181.154 167.091 191.463 156.986 191.463 156.986L219.311 168.273L213.716 219.137C212.301 231.958 207.572 244.195 199.971 254.667L198.129 257.03L95.452 256.948L107.355 220.345L85.3492 257.03H44.4707V257.03Z" fill="#526A76"/>
<path d="M219.311 168.272C219.311 168.272 227.407 172.958 233.51 192.434C239.613 211.911 252.767 246.558 252.767 246.558L285.742 209.575L305.315 221.852C305.315 221.852 273.742 276.016 268.725 282.427C261.248 291.989 242.348 297.448 231.255 284.75C223.187 275.514 203.916 230.83 203.916 230.83L219.311 168.272Z" fill="#526A76"/>
<path d="M207.435 196.496C207.462 196.482 207.558 196.686 207.737 197.08C207.916 197.474 208.191 198.044 208.479 198.805C209.084 200.326 209.854 202.567 210.569 205.392C212.012 211.042 212.974 219.218 211.613 228.073C210.253 236.929 206.871 244.466 203.792 249.437C202.253 251.936 200.851 253.851 199.806 255.115C199.298 255.766 198.871 256.228 198.583 256.554C198.294 256.88 198.129 257.03 198.115 257.016C198.074 256.975 198.624 256.269 199.586 254.952C200.548 253.634 201.882 251.692 203.352 249.179C206.294 244.195 209.552 236.725 210.899 227.965C212.246 219.218 211.38 211.123 210.074 205.5C209.428 202.675 208.741 200.421 208.204 198.886C207.696 197.365 207.394 196.523 207.435 196.496Z" fill="#263238"/>
<path d="M113.747 190.275C113.775 190.275 113.761 190.52 113.692 190.982C113.624 191.525 113.527 192.19 113.417 192.992C113.17 194.73 112.744 197.256 112.167 200.353C111.012 206.546 109.156 215.062 106.572 224.338C103.988 233.615 101.17 241.873 98.9436 247.781C97.8302 250.728 96.8955 253.105 96.2082 254.734C95.8921 255.481 95.6172 256.106 95.411 256.595C95.2186 257.016 95.1086 257.234 95.0811 257.234C95.0536 257.22 95.1224 256.989 95.2736 256.554C95.4522 256.038 95.6859 255.414 95.9471 254.639C96.5794 252.887 97.4316 250.511 98.4625 247.618C100.566 241.682 103.287 233.411 105.871 224.162C108.442 214.913 110.38 206.424 111.658 200.272C112.263 197.27 112.758 194.798 113.129 192.965C113.294 192.163 113.431 191.511 113.541 190.982C113.665 190.506 113.72 190.275 113.747 190.275Z" fill="#263238"/>
<path d="M64.6362 256.963C64.6362 256.963 68.375 251.951 70.2031 251C72.0449 250.05 74.5741 250.077 75.6874 251.068C76.8008 252.06 76.8008 252.06 76.8008 252.06C76.8008 252.06 82.6013 249.493 85.3779 251.462C85.3779 251.462 90.8897 248.882 93.5288 251.829C93.5288 251.829 97.7761 249.099 99.5767 251.489C101.377 253.866 101.185 257.9 100.319 259.978C99.453 262.056 97.8173 269.118 96.5528 269.241C96.5528 269.241 93.1577 269.594 92.7178 267.787C92.2643 265.981 92.0718 265.112 92.0718 265.112C92.0718 265.112 90.7798 271.509 89.2128 271.835C87.6596 272.147 84.6769 271.984 84.5806 269.173C84.5806 269.173 83.1374 271.291 81.7216 270.68C80.3059 270.056 78.5602 269.037 78.7114 267.298C78.8626 265.56 78.8901 263.822 78.8901 263.822C78.8901 263.822 78.1204 266.348 76.842 265.804C75.5637 265.261 74.2717 265.37 73.5569 263.224C72.8422 261.078 71.0553 256.99 71.0553 256.99H64.6362V256.963Z" fill="#A5695F"/>
<path d="M78.793 263.673C78.7106 263.632 79.0542 262.98 79.3429 261.866C79.6453 260.753 79.8514 259.15 79.5353 257.425C79.2191 255.7 78.4357 254.274 77.7484 253.35C77.0611 252.413 76.5113 251.924 76.58 251.856C76.6213 251.802 77.2673 252.196 78.0645 253.106C78.8618 254.002 79.7415 255.496 80.0851 257.316C80.4287 259.15 80.1401 260.848 79.7277 261.975C79.3154 263.102 78.848 263.7 78.793 263.673Z" fill="#83534B"/>
<path d="M85.747 251.489C85.8157 251.476 86.1731 252.413 86.4892 254.016C86.8054 255.605 87.039 257.859 86.8741 260.345C86.6954 262.83 86.1731 265.03 85.637 266.565C85.1009 268.1 84.6199 268.996 84.5649 268.969C84.3862 268.915 86.0219 265.207 86.3243 260.304C86.6817 255.415 85.5683 251.53 85.747 251.489Z" fill="#83534B"/>
<path d="M93.6802 251.91C93.8177 251.897 94.2025 254.939 93.7627 258.687C93.3366 262.436 92.2644 265.315 92.127 265.261C91.962 265.22 92.7868 262.3 93.1991 258.62C93.639 254.939 93.5153 251.924 93.6802 251.91Z" fill="#83534B"/>
<path d="M115.369 253.363C115.135 252.766 114.53 252.372 113.912 252.195C112.455 251.774 110.874 252.345 109.706 253.309C108.551 254.26 107.424 255.767 106.641 257.044L114.86 257.03C114.764 255.781 115.822 254.518 115.369 253.363Z" fill="#A5695F"/>
<path d="M327.527 140.701H371.622C371.622 164.605 351.719 184.272 327.527 184.272C303.336 184.272 283.433 164.605 283.433 140.701C283.433 116.838 303.281 97.1852 327.445 97.1309L327.527 140.701Z" fill="#4540DB"/>
<path d="M335.376 133.707L335.238 90.1367C335.28 90.1367 335.335 90.1367 335.376 90.1367C359.471 90.1367 379.333 109.654 379.471 133.449L335.376 133.707Z" fill="#4540DB"/>
</svg>
