<svg width="100" height="100" viewBox="0 0 100 100" fill="none" xmlns="http://www.w3.org/2000/svg">
<rect width="100" height="100" rx="50" fill="#F7F8FE"/>
<path d="M60.5315 73.3337C61.1161 73.3372 61.6956 73.2174 62.2361 72.981C62.7765 72.7446 63.2671 72.3965 63.6793 71.957L69.6447 65.6337C70.0547 65.1965 70.2848 64.6051 70.2848 63.9887C70.2848 63.3722 70.0547 62.7808 69.6447 62.3437L60.8397 53.0103C60.4272 52.5757 59.8693 52.3318 59.2878 52.3318C58.7063 52.3318 58.1483 52.5757 57.7359 53.0103L54.2139 56.7203C51.7755 56.0312 49.5171 54.7624 47.6101 53.0103C45.9616 50.9857 44.7653 48.593 44.1101 46.0103L47.6101 42.277C48.0201 41.8398 48.2502 41.2484 48.2502 40.632C48.2502 40.0156 48.0201 39.4242 47.6101 38.987L38.8051 29.6537C38.3927 29.2191 37.8347 28.9751 37.2532 28.9751C36.6717 28.9751 36.1138 29.2191 35.7013 29.6537L29.7579 36.0003C29.3433 36.4372 29.0149 36.9573 28.7919 37.5302C28.5689 38.1031 28.4558 38.7173 28.4592 39.337C28.6589 48.3023 32.0386 56.8587 37.9246 63.3003C44.0016 69.5395 52.0736 73.122 60.5315 73.3337V73.3337ZM37.2642 34.6237L42.9655 40.667L40.1258 43.677C39.8569 43.944 39.6555 44.2784 39.5401 44.6494C39.4247 45.0203 39.3991 45.4161 39.4655 45.8003C40.2882 49.6979 42.0302 53.3105 44.5284 56.3003C47.3468 58.9518 50.7558 60.7987 54.434 61.667C54.791 61.7461 55.161 61.73 55.5106 61.62C55.8603 61.51 56.1786 61.3097 56.4372 61.037L59.2768 57.957L64.978 64.0003L60.5755 68.667C53.2756 68.4678 46.3103 65.3796 41.0504 60.0103C35.9719 54.4325 33.0501 47.0396 32.8617 39.2903L37.2642 34.6237ZM68.0818 47.667H72.4843C72.5414 44.8927 72.068 42.1348 71.0926 39.5596C70.1172 36.9844 68.66 34.6452 66.8088 32.683C64.9577 30.7208 62.7509 29.1762 60.3215 28.1423C57.8921 27.1083 55.2903 26.6065 52.673 26.667V31.3337C54.7156 31.2588 56.7508 31.63 58.6523 32.4243C60.5537 33.2187 62.2807 34.4191 63.7259 35.951C65.1711 37.4828 66.3035 39.3134 67.0529 41.329C67.8022 43.3445 68.1525 45.5019 68.0818 47.667Z" fill="#4540DB"/>
<path d="M52.6729 40.6667C57.2955 40.6667 59.2766 42.7667 59.2766 47.6667H63.6791C63.6791 40.1533 59.7609 36 52.6729 36V40.6667Z" fill="#4540DB"/>
</svg>
