<svg width="100" height="100" viewBox="0 0 100 100" fill="none" xmlns="http://www.w3.org/2000/svg">
<rect width="100" height="100" rx="50" fill="#F7F8FE"/>
<path d="M49.9992 48.4997C55.9693 48.4997 60.809 43.3696 60.809 37.0413C60.809 30.7131 55.9693 25.583 49.9992 25.583C44.0291 25.583 39.1895 30.7131 39.1895 37.0413C39.1895 43.3696 44.0291 48.4997 49.9992 48.4997Z" stroke="#4540DB" stroke-width="5"/>
<path d="M60.8094 71.4163H35.4411C34.8279 71.4165 34.2217 71.2784 33.6627 71.0112C33.1038 70.744 32.6048 70.3539 32.1989 69.8667C31.7931 69.3795 31.4896 68.8064 31.3087 68.1853C31.1278 67.5643 31.0735 66.9096 31.1496 66.2647L31.9927 59.1055C32.1888 57.4423 32.9514 55.9123 34.137 54.8032C35.3227 53.6941 36.8497 53.0824 38.431 53.083H39.1899" stroke="#4540DB" stroke-width="5" stroke-linecap="round" stroke-linejoin="round"/>
<path d="M58.6475 57.6663L63.5118 62.2497L71.6192 53.083" stroke="#4540DB" stroke-width="5" stroke-linecap="round" stroke-linejoin="round"/>
</svg>
