<svg width="565" height="465" viewBox="0 0 565 465" fill="none" xmlns="http://www.w3.org/2000/svg">
<path d="M564.492 43.9668H0.629883V462.729H564.492V43.9668Z" fill="#4540DB" fill-opacity="0.28"/>
<path d="M564.492 462.754C564.492 458.493 564.298 297.486 563.983 43.9916L564.492 44.5C405.712 44.5243 210.907 44.5727 0.677923 44.5969H0.629499L1.259 43.9674C1.23479 194.394 1.21058 336.927 1.18636 462.73L0.605288 462.149C334.482 462.512 559.456 462.73 564.492 462.754C559.456 462.754 334.506 462.996 0.629499 463.335H0.048423V462.754C0.048423 336.927 0.0242115 194.394 0 43.9674V43.3379H0.629499H0.677923C210.907 43.3863 405.712 43.4105 564.492 43.459H565V43.9674C564.685 297.486 564.492 458.493 564.492 462.754Z" fill="#4540DB"/>
<path d="M563.523 102.51C563.523 102.849 438.543 103.14 284.388 103.14C130.185 103.14 5.22949 102.849 5.22949 102.51C5.22949 102.171 130.185 101.881 284.388 101.881C438.543 101.881 563.523 102.171 563.523 102.51Z" fill="#E0E0E0"/>
<path d="M37.5036 71.9549C37.5036 76.5309 33.7993 80.2595 29.1991 80.2595C24.5989 80.2595 20.8945 76.5551 20.8945 71.9549C20.8945 67.379 24.5989 63.6504 29.1991 63.6504C33.7993 63.6504 37.5036 67.379 37.5036 71.9549Z" fill="#ED695F"/>
<path d="M62.5144 71.9549C62.5144 76.5309 58.81 80.2595 54.2098 80.2595C49.6338 80.2595 45.9053 76.5551 45.9053 71.9549C45.9053 67.379 49.6096 63.6504 54.2098 63.6504C58.7858 63.6504 62.5144 67.379 62.5144 71.9549Z" fill="#F7BF50"/>
<path d="M87.5007 71.9549C87.5007 76.5309 83.7963 80.2595 79.1961 80.2595C74.6202 80.2595 70.8916 76.5551 70.8916 71.9549C70.8916 67.379 74.596 63.6504 79.1961 63.6504C83.7963 63.6504 87.5007 67.379 87.5007 71.9549Z" fill="#62C555"/>
<path d="M312.668 34.6194C310.779 27.7918 307.075 21.1094 300.973 17.5503C298.068 15.8555 294.775 14.9597 291.821 13.3375C288.262 11.4006 285.333 8.51942 281.992 6.19512C273.808 0.529624 263.131 -1.4073 253.47 1.03807C243.81 3.48343 235.336 10.2627 230.833 19.1483C223.957 13.9186 212.044 16.1218 203.909 19.0514C195.774 21.981 188.971 31.6656 187.01 40.0912L225.167 51.6401C232.794 59.9689 241.292 67.7166 251.243 73.0915C261.194 78.4665 272.743 81.3719 283.928 79.7013C295.114 78.0065 305.767 71.3241 310.827 61.2037C314.895 53.0928 315.089 43.384 312.668 34.6194Z" fill="#263238"/>
<path d="M339.736 160.906C349.444 154.127 351.769 138.898 344.53 129.528C342.375 126.744 339.445 124.226 338.961 120.739C338.67 118.584 339.372 116.454 339.881 114.347C343.319 100.353 337.605 84.5672 326.032 75.9963C325.838 68.176 321.456 51.6395 311.529 45.3203L266.447 51.6637C268.505 99.1425 268.36 146.718 266.036 194.197C265.673 201.485 265.406 209.305 269.401 215.406C275.042 224.05 286.809 225.866 297.148 226.132C307.026 226.374 317.098 225.962 326.419 222.694C335.741 219.425 344.312 212.961 348.234 203.882C354.238 189.887 348.04 173.666 339.736 160.906Z" fill="#263238"/>
<path d="M202.215 64.8631L200.859 54.7669L260.347 36.1967C278.869 32.0565 301.313 48.5204 304.678 67.2116C308.407 87.9851 312.136 113.456 311.433 129.363C310.053 161.322 286.471 168.077 286.471 168.077L288.892 187.01C291.338 206.186 277.779 223.691 258.604 226.16C239.477 228.606 221.996 215.12 219.478 196.017L202.215 64.8631Z" fill="#FFBE9D"/>
<path d="M300.61 90.6685C300.925 92.7749 299.399 94.8087 297.196 95.1719C294.993 95.5351 292.959 94.1308 292.62 92.0244C292.305 89.918 293.831 87.8842 296.034 87.521C298.237 87.1579 300.295 88.5621 300.61 90.6685Z" fill="#263238"/>
<path d="M299.569 81.2725C299.133 81.8535 295.816 79.9408 291.482 80.4493C287.148 80.8851 284.218 83.4999 283.71 83.0157C283.444 82.7978 283.855 81.8051 285.114 80.643C286.373 79.4808 288.577 78.246 291.264 77.9313C293.952 77.6407 296.348 78.3671 297.777 79.2387C299.23 80.1103 299.786 81.0061 299.569 81.2725Z" fill="#263238"/>
<path d="M260.177 96.1903C260.492 98.2967 258.967 100.33 256.764 100.694C254.56 101.057 252.527 99.6525 252.188 97.5461C251.873 95.4397 253.398 93.4059 255.601 93.0427C257.805 92.6554 259.863 94.0596 260.177 96.1903Z" fill="#263238"/>
<path d="M257.101 86.9814C256.665 87.5625 253.348 85.6498 249.014 86.1583C244.68 86.5941 241.751 89.2089 241.218 88.7247C240.952 88.5068 241.363 87.5141 242.622 86.3519C243.857 85.1898 246.084 83.955 248.772 83.6403C251.459 83.3497 253.856 84.0761 255.285 84.9477C256.762 85.8193 257.319 86.7151 257.101 86.9814Z" fill="#263238"/>
<path d="M276.521 117.282C276.472 117.04 279.111 116.265 283.397 115.2C284.486 114.958 285.503 114.619 285.6 113.844C285.769 113.021 285.164 111.883 284.486 110.648C283.13 108.082 281.726 105.418 280.249 102.61C274.317 91.1335 269.911 81.6668 270.371 81.4246C270.831 81.1825 276.012 90.2861 281.92 101.762C283.348 104.595 284.728 107.283 286.036 109.873C286.593 111.084 287.488 112.415 287.101 114.159C286.907 115.03 286.157 115.708 285.479 115.974C284.801 116.265 284.171 116.362 283.639 116.459C279.281 117.209 276.569 117.524 276.521 117.282Z" fill="#263238"/>
<path d="M286.47 168.126C286.47 168.126 264.437 171.975 242.09 161.807C242.09 161.807 255.212 182.556 287.365 175.946L286.47 168.126Z" fill="#EB996E"/>
<path d="M275.889 127.936C274.097 126.048 271.24 125.249 268.553 125.854C266.688 126.266 264.897 127.404 263.928 129.05C262.96 130.721 262.984 132.9 264.17 134.256C265.526 135.757 268.02 135.854 270.005 135.03C272.015 134.207 273.637 132.633 275.163 131.084C275.598 130.648 276.01 130.212 276.252 129.655C276.494 129.099 276.47 128.421 276.058 128.033" fill="#EB996E"/>
<path d="M264.124 121.752C264.826 121.631 265.383 126.328 269.79 129.209C274.196 132.091 279.135 131.001 279.256 131.655C279.353 131.945 278.24 132.696 276.133 132.986C274.075 133.301 270.952 132.986 268.264 131.219C265.577 129.452 264.197 126.837 263.834 124.948C263.398 122.987 263.785 121.752 264.124 121.752Z" fill="#263238"/>
<path d="M256.279 69.8998C255.988 71.1346 251.606 71.0619 246.594 72.2725C241.558 73.362 237.636 75.3232 236.837 74.3547C236.474 73.8947 237.055 72.6841 238.58 71.3525C240.082 70.0208 242.575 68.6408 245.602 67.9629C248.604 67.2849 251.461 67.4302 253.398 67.9871C255.335 68.4955 256.4 69.3187 256.279 69.8998Z" fill="#263238"/>
<path d="M296.543 68.9323C295.889 69.9976 292.79 69.3197 289.207 69.6829C285.599 69.925 282.669 71.1114 281.846 70.1671C281.483 69.7071 281.846 68.666 283.057 67.5765C284.267 66.487 286.35 65.4943 288.843 65.2764C291.313 65.0827 293.565 65.7122 294.92 66.5838C296.301 67.4554 296.833 68.4239 296.543 68.9323Z" fill="#263238"/>
<path d="M208.97 33.3356C202.796 35.3693 195.823 52.1963 197.639 58.4187C199.455 64.6411 205.265 69.1686 211.56 70.7666C217.855 72.3645 224.538 71.3961 230.76 69.5318C239.549 66.8685 248.798 60.8156 249.427 51.6637C257.998 60.283 271.242 63.9389 283.008 60.8883C294.775 57.8376 303.491 39.8485 306.808 28.1543L208.97 33.3356Z" fill="#263238"/>
<path d="M269.861 96.3343C269.716 96.3343 269.788 94.7606 269.062 92.0489C268.336 89.4099 266.544 85.536 262.549 82.558C260.564 81.1053 258.094 79.8705 255.237 79.3863C252.405 78.9263 249.209 79.0231 246.182 80.1853C243.156 81.2748 240.275 83.357 238.217 86.1897C236.11 88.9983 234.924 92.6058 234.875 96.3343C234.9 100.063 236.086 103.67 238.217 106.479C240.275 109.336 243.156 111.394 246.182 112.483C249.209 113.646 252.405 113.742 255.237 113.282C258.094 112.798 260.564 111.563 262.549 110.111C266.544 107.133 268.336 103.259 269.062 100.62C269.788 97.9323 269.716 96.3343 269.861 96.3343C269.909 96.3343 269.934 96.7217 269.934 97.4723C269.958 98.2229 269.861 99.3366 269.546 100.741C268.965 103.501 267.222 107.593 263.106 110.837C261.072 112.411 258.457 113.767 255.455 114.324C252.453 114.88 249.063 114.808 245.819 113.597C242.575 112.459 239.476 110.28 237.248 107.23C234.972 104.227 233.689 100.329 233.641 96.3343C233.665 92.3394 234.972 88.4656 237.248 85.4634C239.451 82.4127 242.575 80.2337 245.819 79.0958C249.063 77.8852 252.453 77.8125 255.455 78.3694C258.482 78.9263 261.072 80.2821 263.106 81.8559C267.222 85.076 268.965 89.192 269.546 91.9521C269.861 93.3563 269.958 94.4701 269.934 95.2206C269.934 95.947 269.909 96.3343 269.861 96.3343Z" fill="#5B57DF"/>
<path d="M314.435 88.3217C314.29 88.3217 314.363 86.7479 313.636 84.0362C312.91 81.3972 311.118 77.5233 307.123 74.5211C305.138 73.0684 302.668 71.8336 299.812 71.3494C296.979 70.8894 293.783 70.9862 290.756 72.1484C287.73 73.2379 284.849 75.3201 282.791 78.1528C280.684 80.9614 279.498 84.5689 279.45 88.2974C279.474 92.026 280.66 95.6335 282.791 98.4421C284.849 101.299 287.73 103.357 290.756 104.447C293.783 105.609 296.979 105.706 299.812 105.246C302.668 104.761 305.138 103.526 307.123 102.074C311.118 99.0958 312.91 95.2219 313.636 92.5829C314.363 89.8954 314.29 88.2975 314.435 88.3217C314.484 88.3217 314.508 88.709 314.508 89.4596C314.532 90.2102 314.435 91.3239 314.121 92.7282C313.539 95.4883 311.796 99.58 307.68 102.824C305.646 104.398 303.032 105.754 300.029 106.311C297.027 106.868 293.638 106.795 290.393 105.584C287.149 104.447 284.05 102.267 281.822 99.2168C279.546 96.2146 278.263 92.3166 278.215 88.3217C278.239 84.3268 279.546 80.4529 281.822 77.4507C284.026 74.4 287.149 72.221 290.393 71.0831C293.638 69.8725 297.027 69.7998 300.029 70.3567C303.056 70.9136 305.646 72.2694 307.68 73.8432C311.796 77.0633 313.539 81.1793 314.121 83.9394C314.435 85.3436 314.532 86.4574 314.508 87.2079C314.484 87.9343 314.459 88.3217 314.435 88.3217Z" fill="#5B57DF"/>
<path d="M267.199 86.5537C267.053 86.5295 267.029 85.7063 267.61 84.5441C268.191 83.4062 269.499 81.9535 271.46 81.3482C273.421 80.7429 275.309 81.1787 276.447 81.784C277.585 82.4135 278.045 83.0915 277.949 83.2125C277.827 83.3578 277.198 82.9462 276.108 82.6072C275.043 82.2683 273.445 82.0504 271.847 82.5346C270.249 83.043 269.063 84.1083 268.385 85.0042C267.683 85.9 267.392 86.6021 267.199 86.5537Z" fill="#5B57DF"/>
<path d="M233.665 100.549C233.786 100.864 230.712 102.196 226.814 103.503C222.915 104.811 219.671 105.61 219.55 105.271C219.453 104.932 222.528 103.6 226.402 102.317C230.3 101.009 233.544 100.235 233.665 100.549Z" fill="#5B57DF"/>
<path d="M542.096 154.782C547.301 152.773 545.147 147.349 545.147 147.349L525.802 153.184C525.802 153.184 536.067 149.02 541.321 144.71C546.575 140.4 543.96 136.672 543.96 136.672L524.034 144.371L512.776 151.005L484.569 194.077C484.569 194.077 506.626 204.852 510.524 201.752C517.376 196.281 521.129 184.078 522.654 177.88C525.414 177.081 534.13 174.49 536.479 172.917C539.287 171.052 540.619 168.244 540.619 168.244L525.269 171.173C527.496 170.52 541.733 165.653 542.871 163.91C544.856 160.835 543.597 159.479 543.597 159.479L524.3 162.481L526.286 161.029C526.262 161.029 537.084 156.719 542.096 154.782Z" fill="#FFBE9D"/>
<path d="M471.035 199.619L406.124 259.059C398.061 257.194 299.23 198.118 299.23 198.118L283.613 274.142C283.613 274.142 384.769 320.653 412.612 315.011C417.164 314.091 424.645 313.51 429.318 307.482C451.593 278.864 498.829 208.045 498.829 208.045L471.035 199.619Z" fill="#FFBE9D"/>
<path d="M515.148 196.642L503.43 191.001L511.904 175.675L518.538 161.632L528.828 142.529L513.163 148.413C511.299 149.212 509.676 150.446 508.442 152.02L482.656 187.635L471.229 199.281L482.269 228.964L495.246 208.724C495.246 208.724 495.246 208.724 502.825 206.956C510.354 205.189 515.148 196.642 515.148 196.642Z" fill="#FFBE9D"/>
<path d="M496.312 172.501C501.711 169.79 507.328 167.587 513.139 165.94C515.027 165.383 517.013 164.899 518.95 165.19C520.887 165.48 522.824 166.715 523.356 168.628C523.937 170.782 522.533 173.083 520.669 174.293C518.804 175.504 516.529 175.94 514.374 176.496C512.219 177.053 509.967 177.852 508.539 179.571C507.183 181.193 506.747 183.348 506.045 185.334C503.721 191.798 497.837 196.834 491.106 198.141" fill="#FFBE9D"/>
<path d="M491.082 198.166C491.058 198.07 492.124 197.852 493.915 197.125C495.683 196.399 498.201 195.116 500.67 192.719C501.881 191.532 503.091 190.08 504.084 188.361C505.125 186.617 505.755 184.656 506.457 182.405C506.844 181.291 507.328 180.129 508.2 179.136C509.047 178.143 510.21 177.417 511.396 176.909C513.793 175.843 516.456 175.601 518.805 174.633C519.991 174.149 521.008 173.495 521.783 172.575C522.533 171.679 522.993 170.541 522.945 169.476C522.824 167.248 520.475 165.82 518.417 165.699C516.262 165.529 514.156 166.207 512.195 166.764C510.234 167.345 508.442 167.926 506.796 168.483C503.527 169.621 500.937 170.686 499.145 171.461C497.353 172.212 496.361 172.647 496.336 172.575C496.312 172.502 497.232 171.945 498.951 171.074C500.694 170.202 503.261 168.991 506.505 167.757C508.127 167.127 509.943 166.498 511.904 165.892C513.841 165.311 515.996 164.537 518.466 164.682C519.7 164.754 520.959 165.166 522.025 165.965C523.09 166.74 523.962 168.023 524.034 169.476C524.155 172.43 521.783 174.802 519.216 175.771C516.65 176.812 514.011 177.054 511.832 178.022C510.742 178.482 509.75 179.112 509.023 179.935C508.297 180.758 507.837 181.799 507.449 182.84C506.747 184.971 506.021 187.174 504.907 188.942C503.842 190.733 502.534 192.21 501.227 193.421C498.612 195.818 495.949 197.053 494.085 197.658C493.14 197.948 492.414 198.142 491.881 198.215C491.349 198.166 491.082 198.191 491.082 198.166Z" fill="#EB996E"/>
<path d="M291.895 412.03H158.852C158.852 412.03 139.217 436.75 126.264 462.511L315.888 463.286C319.593 457.185 291.895 412.03 291.895 412.03Z" fill="#263238"/>
<path d="M331.213 291.044C326.71 231.484 311.941 194.053 311.941 194.053L288.891 186.959C285.405 202.188 260.612 207.2 246.473 200.542L231.534 192.721C183.571 185.53 186.065 189.501 174.976 196.159C165.34 201.946 166.236 245.163 166.236 245.163C166.236 245.163 142.339 357.747 143.622 375.809C144.93 393.871 158.851 412.005 158.851 412.005C158.851 412.005 278.505 412.005 291.893 412.005C305.282 412.005 309.108 381.716 308.188 370.724C307.244 359.757 332.714 310.631 331.213 291.044Z" fill="#D45235"/>
<path d="M204.877 328.547C204.829 328.619 205.603 329.321 207.105 330.435C208.63 331.549 210.93 333.026 213.981 334.454C217.031 335.883 220.905 337.19 225.336 337.868C229.767 338.497 234.803 338.449 239.863 337.238C250.08 334.866 257.755 328.837 262.452 324.14C264.825 321.743 266.52 319.612 267.633 318.111C268.723 316.586 269.256 315.69 269.183 315.642C268.989 315.472 266.568 318.886 261.75 323.438C256.956 327.893 249.378 333.607 239.524 335.883C229.694 338.255 220.373 336.149 214.368 333.558C208.291 330.943 205.022 328.304 204.877 328.547Z" fill="#263238"/>
<g opacity="0.3">
<g opacity="0.3">
<g opacity="0.3">
<g opacity="0.3">
<g opacity="0.3">
<g opacity="0.3">
<g opacity="0.3">
<path opacity="0.3" d="M266.981 318.693C265.964 328.741 261.17 338.498 253.301 344.841C245.457 351.185 234.537 353.824 224.829 351.04C215.12 348.255 207.057 339.878 205.387 329.903C212.239 333.026 219.187 336.174 226.62 337.287C242.479 339.684 259.403 331.695 267.61 317.942C267.247 318.33 266.884 318.717 266.521 319.08" fill="black" fill-opacity="0.6"/>
</g>
</g>
</g>
</g>
</g>
</g>
</g>
<path d="M115.126 288.308L182.168 319.734C182.168 319.734 209.502 259.278 211.851 250.998C214.2 242.742 221.584 229.643 214.006 212.405C206.452 195.166 186.187 188.847 174.977 196.183C149.869 212.647 115.126 288.308 115.126 288.308Z" fill="#D45235"/>
<path d="M325.936 291.504C329.059 291.504 365.013 310.316 365.013 310.316L385.472 242.524C354.917 222.162 329.834 198.894 311.941 194.101L321.335 250.126L325.936 291.504Z" fill="#D45235"/>
<path d="M115.126 288.309C115.15 288.261 115.61 288.43 116.458 288.769C117.426 289.181 118.661 289.713 120.162 290.343C123.527 291.844 128.103 293.878 133.72 296.347C145.245 301.601 160.91 308.744 178.221 316.637C180.086 317.484 181.926 318.331 183.645 319.13L182.797 319.421C190.545 303.466 197.324 289.205 202.118 278.915C204.442 273.879 206.331 269.763 207.735 266.737C208.34 265.405 208.849 264.316 209.236 263.444C209.599 262.693 209.793 262.306 209.841 262.33C209.89 262.354 209.745 262.766 209.478 263.541C209.188 264.316 208.776 265.478 208.171 266.93C207.009 269.86 205.217 274.073 202.917 279.278C198.317 289.689 191.683 304.022 183.959 319.978L183.693 320.535L183.112 320.268C181.393 319.469 179.553 318.622 177.689 317.775C160.45 309.761 144.834 302.497 133.357 297.146C127.837 294.507 123.31 292.352 119.968 290.755C118.516 290.028 117.305 289.423 116.361 288.963C115.513 288.6 115.102 288.358 115.126 288.309Z" fill="#263238"/>
<path d="M319.761 235.842C319.858 235.818 320.318 237.319 321.141 240.006C322.037 242.912 323.223 246.761 324.676 251.459C327.581 261.095 331.818 274.677 332.012 290.318C331.891 298.138 330.293 305.45 328.429 311.89C326.564 318.355 324.41 323.996 322.57 328.717C320.705 333.439 319.132 337.191 318.042 339.806C316.953 342.421 316.323 343.85 316.25 343.825C316.202 343.801 316.299 343.438 316.541 342.712C316.831 341.864 317.17 340.847 317.606 339.637C318.647 336.804 320.052 333.003 321.771 328.403C323.49 323.657 325.572 318.016 327.363 311.576C329.155 305.16 330.68 297.969 330.802 290.318C330.608 274.944 326.565 261.409 323.877 251.701C322.497 246.834 321.407 242.888 320.73 240.128C320.391 238.747 320.148 237.682 319.979 236.956C319.785 236.229 319.713 235.842 319.761 235.842Z" fill="#263238"/>
<path d="M263.082 222.333C262.041 212.479 256.86 203.351 249.838 196.33C246.376 192.843 242.188 189.357 241.51 184.49C240.638 178.171 246.11 172.263 245.214 165.944C244.1 158.075 234.246 154.637 230.711 147.519C225.966 137.931 234.222 125.462 229.138 116.044C226.087 110.379 218.775 107.328 217.322 101.057C216.378 96.9897 224.126 91.0579 225.917 82.2449C229.961 62.4157 232.019 47.0898 212.771 35.5651L201.561 20.1182C188.946 26.2679 178.366 40.0927 178.148 54.5712C178.051 61.3988 181.538 68.2507 178.56 74.4004C174.42 82.9955 164.735 88.2736 161.805 97.3529C157.617 110.354 169.141 124.881 164.105 137.568C161.152 145.05 153.331 149.311 148.441 155.703C140.766 165.702 141.54 181.246 150.208 190.422C137.957 198.678 132.291 215.505 137.061 229.499C139.071 235.383 143.598 241.218 149.796 241.557C158.682 242.041 163.742 231.993 170.255 225.916C180.351 216.474 198.074 216.958 207.662 226.885C214.49 233.979 217.25 244.632 225.215 250.442C233.229 256.277 245.141 255.212 252.841 248.99C260.564 242.743 264.123 232.187 263.082 222.333Z" fill="#263238"/>
<path d="M175.582 315.469C162.895 336.34 154.034 348.324 154.034 348.324L267.901 417.666L254.633 448.488L106.943 387.692C106.943 387.692 92.3915 372.705 97.5244 356.024L121.082 291.04L175.582 315.469Z" fill="#FFBE9D"/>
<path d="M126.336 358.931C126.602 359.295 131.977 354.767 139.967 351.862C147.909 348.859 154.954 348.787 154.906 348.327C154.978 347.988 147.715 347.431 139.459 350.53C131.203 353.556 126.07 358.713 126.336 358.931Z" fill="#EB996E"/>
<path d="M356.223 438.805L327.823 425.222L272.403 420.815L267.875 417.668L254.607 448.489C254.607 448.489 269.134 455.438 276.737 456.043L323.344 454.639L347.701 457.205L356.223 438.805Z" fill="#FFBE9D"/>
<path d="M515.996 329.394L356.225 330.701C351.043 330.701 346.08 333.195 345.305 338.303L327.849 454.761H245.554C242.915 454.761 240.76 456.916 240.76 459.555C240.76 462.194 242.915 464.349 245.554 464.349H326.42H341.77H508.394L526.359 341.451C527.327 335.108 522.412 329.394 515.996 329.394Z" fill="#E0E0E0"/>
<path d="M515.996 329.396C515.996 329.396 516.868 329.275 518.514 329.638C520.112 330.001 522.63 330.994 524.616 333.681C525.608 334.989 526.359 336.756 526.601 338.79C526.867 340.848 526.262 343.027 526.02 345.351C525.342 350.048 524.591 355.472 523.72 361.573C520.209 385.978 515.125 421.182 508.902 464.424L508.83 464.835H508.394C440.384 464.884 350.995 464.932 253.398 464.98C251.098 464.98 248.822 464.98 246.546 464.98C245.481 465.029 244.004 464.956 242.915 464.278C241.777 463.649 240.905 462.608 240.469 461.397C239.501 458.952 240.663 455.974 242.939 454.763C244.028 454.109 245.481 454.037 246.546 454.085H249.936C258.943 454.085 267.852 454.085 276.641 454.085C294.243 454.085 311.36 454.085 327.873 454.109L327.267 454.642C333.562 412.95 339.422 374.042 344.676 339.129C344.869 336.926 345.862 334.529 347.629 333.052C349.373 331.502 351.552 330.703 353.731 330.364C355.958 330.025 358.064 330.219 360.171 330.146C362.277 330.122 364.36 330.122 366.442 330.098C374.746 330.05 382.76 329.977 390.484 329.929C405.955 329.832 420.24 329.735 433.241 329.662C459.172 329.541 479.873 329.42 494.109 329.347C501.179 329.323 506.651 329.323 510.379 329.323C512.195 329.323 513.599 329.347 514.592 329.347C515.512 329.372 515.996 329.396 515.996 329.396C515.996 329.396 515.512 329.444 514.568 329.469C513.599 329.493 512.195 329.517 510.355 329.565C506.626 329.614 501.155 329.711 494.085 329.808C479.848 329.977 459.172 330.195 433.241 330.485C420.264 330.606 405.955 330.752 390.484 330.897C382.76 330.97 374.722 331.042 366.442 331.115C364.36 331.139 362.277 331.163 360.171 331.163C358.064 331.236 355.91 331.066 353.876 331.381C351.842 331.696 349.833 332.471 348.307 333.851C346.734 335.207 345.91 337.119 345.717 339.298C340.511 374.211 334.7 413.119 328.478 454.836L328.405 455.368H327.873C311.36 455.368 294.219 455.368 276.641 455.393C267.852 455.393 258.943 455.393 249.936 455.393H246.546C245.36 455.368 244.464 455.417 243.568 455.901C241.825 456.821 240.953 459.097 241.68 460.961C242.019 461.881 242.697 462.68 243.544 463.165C244.44 463.673 245.336 463.721 246.546 463.697C248.822 463.697 251.122 463.697 253.398 463.697C350.995 463.746 440.384 463.818 508.394 463.842L507.91 464.254C514.326 421.036 519.531 385.857 523.163 361.452C524.083 355.375 524.882 349.951 525.584 345.254C525.875 342.906 526.48 340.751 526.238 338.79C526.044 336.829 525.318 335.11 524.373 333.827C522.485 331.188 520.04 330.171 518.466 329.759C516.868 329.396 515.996 329.469 515.996 329.396Z" fill="#263238"/>
<path d="M429.343 405.394C434.866 405.394 439.342 400.917 439.342 395.395C439.342 389.872 434.866 385.396 429.343 385.396C423.821 385.396 419.344 389.872 419.344 395.395C419.344 400.917 423.821 405.394 429.343 405.394Z" fill="white"/>
<path d="M334.338 463.286C334.556 463.335 339.64 433.676 345.693 397.068C351.746 360.46 356.467 330.753 356.225 330.704C356.007 330.656 350.923 360.315 344.87 396.923C338.817 433.53 334.096 463.238 334.338 463.286Z" fill="#263238"/>
</svg>
