<svg width="537" height="403" viewBox="0 0 537 403" fill="none" xmlns="http://www.w3.org/2000/svg">
<path d="M535.318 43.7021H45.916V401.484H535.318V43.7021Z" fill="#B5B4DF" fill-opacity="0.6"/>
<path d="M535.319 401.486C535.319 397.722 535.147 260.511 534.867 43.7037L535.319 44.1553C397.978 44.1768 228.722 44.2199 45.9596 44.2629H45.9166L46.4758 43.7037C46.4543 172.076 46.4327 293.76 46.4327 401.486L45.9166 400.97C335.459 401.292 530.824 401.486 535.319 401.486C530.824 401.486 335.459 401.701 45.9166 402.002H45.4004V401.486C45.3789 293.76 45.3574 172.076 45.3574 43.7037V43.1445H45.9166H45.9596C228.722 43.1875 397.978 43.2091 535.319 43.2521H535.77V43.7037C535.491 260.511 535.319 397.722 535.319 401.486Z" fill="#263238"/>
<path d="M536.975 95.7701C536.975 96.0712 427.658 96.3293 292.833 96.3293C157.966 96.3293 48.6699 96.0712 48.6699 95.7701C48.6699 95.469 157.966 95.2109 292.833 95.2109C427.636 95.2109 536.975 95.469 536.975 95.7701Z" fill="#E0E0E0"/>
<path d="M77.2945 68.6277C77.2945 72.6924 74.004 76.0044 69.9177 76.0044C65.853 76.0044 62.541 72.7139 62.541 68.6277C62.541 64.563 65.8315 61.251 69.9177 61.251C74.004 61.251 77.2945 64.563 77.2945 68.6277Z" fill="#ED6A5E"/>
<path d="M99.5103 68.6277C99.5103 72.6924 96.2198 76.0044 92.1336 76.0044C88.0688 76.0044 84.7568 72.7139 84.7568 68.6277C84.7568 64.563 88.0473 61.251 92.1336 61.251C96.1983 61.251 99.5103 64.563 99.5103 68.6277Z" fill="#F4BD4F"/>
<path d="M121.706 68.6277C121.706 72.6924 118.415 76.0044 114.329 76.0044C110.264 76.0044 106.952 72.7139 106.952 68.6277C106.952 64.563 110.243 61.251 114.329 61.251C118.415 61.251 121.706 64.563 121.706 68.6277Z" fill="#63C555"/>
<path d="M101.382 183.21L104.479 181.252C110.156 177.639 117.662 179.596 120.888 185.489C125.856 194.543 132.029 207.168 132.029 207.168L118.996 227.814L114.63 227.943C109.877 230.976 98.801 224.868 91.2953 220.308C83.7895 215.749 87.4886 211.168 87.4886 211.168C82.7787 204.695 89.2736 202.028 89.2736 202.028C85.2949 196.135 91.1877 192.135 91.1877 192.135" fill="#FFBE9D"/>
<path d="M94.8793 117.929L0.592773 135.997L25.8939 268.028L120.18 249.96L94.8793 117.929Z" fill="white"/>
<path d="M25.8938 268.03C25.8938 268.052 25.8293 267.837 25.7433 267.449C25.6573 266.998 25.5282 266.417 25.3562 265.643C25.0336 263.987 24.5389 261.6 23.9367 258.524C22.6894 252.223 20.9043 243.061 18.6246 231.512C14.0868 208.199 7.67782 175.165 0.086026 136.109L0 135.593L0.49465 135.507C28.9693 130.023 61.014 123.872 94.7577 117.399H94.7792L95.3384 117.291L95.4459 117.85C104.887 167.294 113.597 213.017 120.652 249.9L120.738 250.352L120.286 250.438C91.6177 255.836 67.9821 260.266 51.4866 263.385C43.3356 264.89 36.9267 266.095 32.5178 266.89C30.3887 267.277 28.7327 267.579 27.5713 267.794C26.453 267.966 25.8938 268.03 25.8938 268.03C25.8938 268.03 26.496 267.88 27.6359 267.643C28.8187 267.406 30.4747 267.062 32.6469 266.632C37.0557 265.75 43.4862 264.482 51.6586 262.869C68.0681 259.664 91.5747 255.083 120.092 249.513L119.727 250.051C112.63 213.167 103.833 167.466 94.3276 118.044L94.9727 118.495H94.9512C61.186 124.947 29.1628 131.077 0.666702 136.518L1.07533 135.916C8.43055 174.864 14.6674 207.812 19.0548 231.082C21.2269 242.717 22.9474 251.922 24.1303 258.266C24.711 261.406 25.1411 263.815 25.4637 265.514C25.6143 266.31 25.7218 266.933 25.7863 267.385C25.8723 267.794 25.9153 268.009 25.8938 268.03Z" fill="#263238"/>
<path d="M16.3449 166.241C16.2804 165.939 31.8511 162.692 51.0994 159.014C70.3693 155.315 86.026 152.584 86.069 152.885C86.1336 153.186 70.5628 156.434 51.3145 160.111C32.0447 163.81 16.3879 166.563 16.3449 166.241Z" fill="#263238"/>
<path d="M18.1301 175.573C18.0656 175.271 33.6363 172.024 52.8846 168.346C72.1544 164.647 87.8112 161.916 87.8542 162.217C87.9187 162.518 72.348 165.766 53.0997 169.443C33.8298 173.121 18.1731 175.874 18.1301 175.573Z" fill="#263238"/>
<path d="M19.9152 184.888C19.8507 184.587 35.4214 181.339 54.6698 177.662C73.9396 173.963 89.5963 171.231 89.6394 171.532C89.7039 171.834 74.1332 175.081 54.8848 178.759C35.6365 182.458 19.9583 185.211 19.9152 184.888Z" fill="#263238"/>
<path d="M21.7004 194.22C21.6359 193.919 37.2066 190.671 56.4549 186.994C75.7248 183.295 91.3815 180.563 91.4245 180.864C91.489 181.166 75.9183 184.413 56.67 188.091C37.4217 191.768 21.7434 194.521 21.7004 194.22Z" fill="#263238"/>
<path d="M23.4846 203.533C23.4201 203.231 38.9908 199.984 58.2391 196.306C77.5089 192.607 93.1657 189.876 93.2087 190.177C93.2732 190.478 77.7025 193.726 58.4542 197.403C39.2058 201.102 23.5491 203.834 23.4846 203.533Z" fill="#263238"/>
<path d="M25.2697 212.867C25.2052 212.565 40.7759 209.318 60.0243 205.64C79.2941 201.941 94.9508 199.21 94.9938 199.511C95.0584 199.812 79.4876 203.06 60.2393 206.737C40.991 210.415 25.3343 213.168 25.2697 212.867Z" fill="#263238"/>
<path d="M27.0549 222.179C26.9904 221.878 42.5611 218.63 61.8094 214.953C81.0792 211.254 96.736 208.522 96.779 208.823C96.8435 209.125 81.2728 212.372 62.0245 216.05C42.7761 219.749 27.1194 222.48 27.0549 222.179Z" fill="#263238"/>
<path d="M28.84 231.511C28.7755 231.21 44.3462 227.962 63.5946 224.285C82.8644 220.586 98.5211 217.854 98.5641 218.155C98.6287 218.457 83.058 221.704 63.8096 225.382C44.5613 229.059 28.9046 231.812 28.84 231.511Z" fill="#263238"/>
<path d="M30.6252 240.825C30.5607 240.524 46.1314 237.277 65.3797 233.599C84.6496 229.9 100.306 227.169 100.349 227.47C100.414 227.771 84.8431 231.019 65.5948 234.696C46.3465 238.395 30.6897 241.127 30.6252 240.825Z" fill="#263238"/>
<path d="M81.8968 125.291C81.9829 125.27 82.1979 126.109 82.5635 127.636C82.9507 129.399 83.4238 131.571 83.983 134.109C84.1335 134.797 84.2841 135.528 84.4346 136.26C84.5852 137.077 84.5637 137.98 84.3056 138.84C83.7894 140.561 82.1979 142.131 80.1548 142.454C78.1332 142.841 75.789 141.851 74.6707 139.873C74.3911 139.378 74.176 138.862 74.0685 138.281C73.9609 137.787 73.8749 137.271 73.7674 136.754C73.5738 135.722 73.3803 134.69 73.1652 133.636C72.7566 131.528 72.3695 129.485 72.0038 127.507C71.8103 126.517 71.6382 125.549 71.4662 124.582C71.2941 123.657 71.0791 122.625 71.1651 121.635C71.3156 119.635 72.3479 117.872 73.7244 116.753C75.1008 115.635 76.7783 115.183 78.2622 115.205C81.3162 115.291 83.2302 117.248 83.9615 118.624C84.3486 119.334 84.5206 119.936 84.6067 120.366C84.6712 120.775 84.6927 120.99 84.6497 121.012C84.5421 121.033 84.4346 120.13 83.5959 118.861C82.8001 117.635 80.9721 115.979 78.2622 116.001C76.9503 116.022 75.5094 116.474 74.3266 117.463C73.1652 118.452 72.3049 119.979 72.1974 121.7C72.1329 122.56 72.3264 123.399 72.52 124.388C72.7136 125.334 72.9071 126.302 73.1007 127.291C73.4878 129.27 73.8749 131.313 74.2835 133.421C74.4771 134.475 74.6922 135.507 74.8857 136.539C74.9933 137.055 75.0793 137.55 75.1653 138.045C75.2513 138.496 75.4234 138.905 75.6384 139.314C76.5202 140.884 78.3698 141.722 80.0043 141.421C81.6603 141.185 82.9722 139.959 83.4453 138.539C83.6819 137.83 83.7249 137.098 83.6174 136.41C83.4883 135.658 83.3593 134.948 83.2302 134.238C82.8001 131.657 82.456 129.464 82.1549 127.679C81.9183 126.173 81.8323 125.313 81.8968 125.291Z" fill="#263238"/>
<path d="M109.963 179.445C109.253 179.51 81.3161 183.854 81.3161 183.854C80.8215 186.435 82.3269 190.07 88.9079 190.177C95.1448 190.285 100.78 189.747 100.78 189.747C100.78 189.747 107.683 204.156 114.479 205.769C121.275 207.382 117.942 191.919 117.942 191.919L109.963 179.445Z" fill="#FFBE9D"/>
<path d="M430.108 88.4724C432.517 82.8377 434.99 77.0094 435.205 70.8586C435.442 64.6862 432.904 58.0192 427.592 55.2234C422.667 52.6426 416.624 53.8469 411.419 51.9974C404.989 49.6962 400.924 43.2227 398.063 36.8353C395.203 30.4479 399.182 28.1252 394.343 23.1787C387.934 16.6192 383.762 15.6729 375.654 19.6731C369.825 15.5438 349.545 8.05958 343.695 7.86602C335.028 7.60795 325.156 8.29615 319.092 14.5115C314.403 19.329 311.414 25.4583 305.65 28.9424C297.714 33.7168 287.606 29.6521 278.358 29.9962C276.466 30.0607 274.272 30.5554 273.498 32.2759C272.831 33.7599 273.541 35.4804 274.25 36.9428C276.638 41.9108 279.025 46.9003 281.412 51.8683C277.541 53.6749 272.81 53.5458 269.024 51.5672C269.433 61.3097 273.412 70.8801 280.014 78.0418C278.38 76.8804 275.907 78.0848 275.089 79.9128C274.272 81.7409 274.638 83.8915 275.175 85.8271C278.401 97.7417 286.982 108.108 298.08 113.484C309.199 118.861 322.64 119.184 333.996 114.345L385.009 118.194C386.428 122.173 389.826 125.335 393.805 126.367C399.526 122.13 400.429 119.764 400.429 119.764C403.935 122.388 401.182 121.055 403.935 122.388C410.258 125.399 419.613 121.829 421.032 114.775C421.635 111.828 422.452 109.011 424.43 106.99C426.452 104.946 429.334 104.151 431.872 102.86C435.893 100.839 439.227 97.4191 441.206 93.2899C437.076 93.3544 432.969 91.5694 430.108 88.4724Z" fill="#263238"/>
<path d="M394.018 66.5911L395.33 171.887C395.545 189.802 392.211 216.147 363.887 215.201C339.37 212.534 332.875 189.329 332.681 172.618C332.595 164.682 332.509 158.08 332.445 157.263C332.445 157.263 305.605 155.069 303.347 128.573C302.25 115.755 302.142 89.1944 302.336 65.1501C302.529 39.3423 322.552 18.0079 348.295 16.1368L350.854 15.9432C378.555 15.5561 394.384 38.8692 394.018 66.5911Z" fill="#FFBE9D"/>
<path d="M332.425 157.299C332.425 157.299 349.221 157.063 366.233 144.567C366.233 144.567 359.222 164.568 332.575 164.095L332.425 157.299Z" fill="#EB996E"/>
<path d="M347.63 76.0386C348.146 76.5763 351.221 74.103 355.652 73.9955C360.082 73.8019 363.416 76.0601 363.867 75.4794C364.104 75.2214 363.545 74.2536 362.104 73.2212C360.684 72.2104 358.276 71.2641 355.501 71.3502C352.727 71.4577 350.447 72.5545 349.135 73.6729C347.802 74.7912 347.372 75.802 347.63 76.0386Z" fill="#263238"/>
<path d="M346.833 85.9199C346.898 87.8124 348.576 89.3179 350.554 89.2749C352.533 89.2319 354.081 87.6619 354.017 85.7693C353.952 83.8768 352.275 82.3713 350.296 82.3928C348.296 82.4573 346.747 84.0273 346.833 85.9199Z" fill="#263238"/>
<path d="M336.512 106.935C336.512 106.698 333.953 106.44 329.802 106.225C328.748 106.204 327.759 106.053 327.522 105.365C327.221 104.634 327.565 103.472 327.995 102.225C328.791 99.6442 329.63 96.9128 330.49 94.074C333.931 82.482 336.361 72.9761 335.888 72.8255C335.415 72.6965 332.232 81.9873 328.791 93.5793C327.974 96.4397 327.178 99.171 326.425 101.773C326.124 102.978 325.544 104.376 326.189 105.903C326.533 106.655 327.329 107.171 328.017 107.3C328.705 107.451 329.286 107.43 329.802 107.408C333.931 107.343 336.512 107.171 336.512 106.935Z" fill="#263238"/>
<path d="M349.523 59.3567C349.953 60.346 353.501 59.5933 357.76 59.8084C362.018 59.9374 365.524 60.9697 366.018 60.0234C366.233 59.5718 365.567 58.6685 364.126 57.7867C362.685 56.905 360.448 56.1307 357.889 56.0232C355.33 55.9157 353.05 56.5179 351.566 57.2706C350.06 58.0233 349.329 58.8836 349.523 59.3567Z" fill="#263238"/>
<path d="M307.349 67.5664C307.822 68.3621 311.285 67.4804 315.479 67.3513C319.672 67.1363 323.156 67.7599 323.608 66.9212C323.802 66.5126 323.113 65.8029 321.651 65.1577C320.21 64.5125 317.952 64.0393 315.436 64.1253C312.919 64.2329 310.683 64.8996 309.263 65.6523C307.801 66.405 307.134 67.1793 307.349 67.5664Z" fill="#263238"/>
<path d="M393.289 86.4071C393.719 86.1706 411.118 79.6756 411.871 97.8701C412.623 116.043 394.214 113.054 394.149 112.538C394.106 112 393.289 86.4071 393.289 86.4071Z" fill="#FFBE9D"/>
<path d="M399.417 105.427C399.503 105.362 399.74 105.642 400.299 105.857C400.837 106.072 401.74 106.201 402.665 105.814C404.557 105.04 406.041 101.921 405.998 98.6306C405.977 96.9746 405.568 95.4046 404.923 94.1357C404.321 92.8238 403.418 91.9421 402.45 91.813C401.482 91.6195 400.815 92.2431 400.622 92.7593C400.407 93.2755 400.536 93.6411 400.428 93.6626C400.385 93.7056 400.02 93.383 400.149 92.6088C400.213 92.2431 400.407 91.813 400.815 91.4474C401.245 91.0818 401.869 90.8667 402.557 90.9097C403.955 90.9528 405.289 92.1786 405.977 93.5981C406.751 95.0175 407.267 96.7595 407.289 98.6306C407.332 102.308 405.59 105.814 402.988 106.674C401.719 107.061 400.643 106.717 400.063 106.308C399.482 105.857 399.353 105.448 399.417 105.427Z" fill="#EB996E"/>
<path d="M340.792 119.528C340.598 119.077 344.147 118.001 346.663 114.668C347.91 113.033 348.642 111.227 349.179 109.915C349.717 108.603 350.104 107.764 350.298 107.829C350.491 107.893 350.427 108.775 350.147 110.216C349.846 111.635 349.222 113.657 347.803 115.528C346.405 117.421 344.534 118.539 343.157 119.077C341.781 119.636 340.835 119.679 340.792 119.528Z" fill="#263238"/>
<path d="M417.463 56.9878C413.678 50.5788 412.796 42.9225 410.731 35.7608C408.667 28.5992 404.667 21.2009 397.656 18.6847L397.505 18.7492C391.204 16.2114 383.44 16.1899 378.257 20.5557C376.966 11.1144 368.686 3.63011 359.46 1.19988C350.234 -1.23036 335.437 0.232086 326.598 3.78066C319.759 6.53349 313.156 12.1682 305.113 20.4482C301.736 23.9323 298.618 27.6959 295.844 31.6961L287.822 56.4716C286.962 57.0953 286.209 57.8695 285.564 58.7298C282.381 63.0741 288.338 68.5368 292.381 64.9667C292.403 64.9452 292.424 64.9237 292.446 64.9022C293.263 66.3001 293.887 67.7195 294.553 69.1389V69.182L294.704 69.44C295.112 70.3218 295.543 71.2036 296.059 72.0853V72.0208L302.253 99.3986C302.64 91.9358 302.102 65.9775 302.489 58.5147C314.017 58.0201 324.426 53.3747 332.147 44.8151C336.233 40.2987 339.437 34.6425 344.879 31.9542C351.911 28.4701 360.277 31.0079 367.697 33.5887L367.374 33.3091C371.224 35.0941 374.73 37.6319 377.633 40.7288C375.955 55.4178 377.504 70.4724 382.106 84.5161C382.795 86.6237 384.709 90.9896 386.773 91.8068C390.859 93.3768 391.956 89.226 394.408 87.0109C396.215 85.3764 398.903 85.1828 401.828 85.1828C403.548 80.6449 405.333 73.0101 406.817 66.3216C409.291 67.0743 411.914 67.2679 414.452 66.8377C413.678 64.9667 412.882 63.0956 412.108 61.2245C413.119 61.8697 414.173 62.5364 415.377 62.7085C416.56 62.8805 417.936 62.4289 418.474 61.3536C419.184 59.9342 418.259 58.3212 417.463 56.9878Z" fill="#263238"/>
<path d="M369.911 23.6084C369.868 23.6729 371.03 24.3181 372.578 26.0386C374.105 27.7592 375.826 30.7701 376.643 34.8348C377.051 36.8564 377.331 39.1361 377.331 41.5663C377.353 44.0181 377.137 46.6204 376.965 49.3732C376.793 52.126 376.6 55.0509 376.772 58.0618C376.858 59.5673 377.051 61.1158 377.374 62.6427C377.718 64.1482 378.105 65.7827 379.245 67.0946C380.148 68.1484 381.675 68.6215 382.987 68.3634C384.321 68.1269 385.482 67.4172 386.364 66.4709C388.063 64.4708 388.493 61.9545 388.923 59.7178L388.364 59.7823C389.267 61.7825 390.213 63.7611 391.59 65.331C392.945 66.9225 394.837 67.9763 396.751 68.1484C397.698 68.2344 398.666 68.0839 399.483 67.6752C400.322 67.2666 400.924 66.5784 401.332 65.8472C401.719 65.0945 401.934 64.2772 401.891 63.503C401.848 62.7072 401.547 61.976 401.031 61.4384L400.752 61.6964C402.795 64.0191 404.945 65.2665 406.451 65.9762C407.204 66.3203 407.806 66.5354 408.214 66.6644C408.623 66.7935 408.838 66.8365 408.838 66.815C408.838 66.7935 408.645 66.7074 408.236 66.5569C407.849 66.3848 407.247 66.1483 406.515 65.7827C405.074 65.0514 402.967 63.7611 401.01 61.4384L400.73 61.6964C401.612 62.6427 401.676 64.2987 400.902 65.6321C400.515 66.2988 399.956 66.901 399.225 67.2451C398.493 67.6107 397.612 67.7398 396.751 67.6537C394.988 67.4817 393.246 66.4924 391.955 64.9869C390.644 63.4815 389.74 61.5459 388.859 59.5458L388.471 58.6855L388.299 59.6103C387.869 61.8255 387.418 64.2557 385.869 66.0622C385.095 66.9225 384.02 67.5677 382.858 67.7613C381.697 67.9763 380.471 67.6107 379.675 66.6859C378.686 65.5676 378.277 64.0191 377.955 62.5137C377.632 61.0082 377.46 59.5028 377.353 58.0188C377.181 55.0509 377.353 52.1475 377.525 49.3947C377.697 46.6419 377.869 44.0181 377.847 41.5448C377.826 39.0716 377.525 36.7704 377.094 34.7273C376.213 30.598 374.385 27.5656 372.772 25.8451C371.116 24.1676 369.911 23.6084 369.911 23.6084Z" fill="#597C8D"/>
<path d="M287.864 49.4171C287.864 49.4171 287.929 49.4817 288.079 49.5892C288.251 49.7182 288.466 49.8688 288.746 50.0623C289.026 50.2774 289.413 50.5355 289.864 50.7721C290.316 51.0301 290.854 51.3527 291.477 51.6108C293.951 52.7722 297.886 53.9335 302.833 53.6539C307.715 53.3743 313.586 51.6538 318.834 47.7396C324.124 43.933 328.77 38.3198 332.576 31.8893C334.512 28.6849 336.082 25.3944 337.802 22.3405C339.523 19.308 341.415 16.4907 343.717 14.2755C345.996 12.0388 348.642 10.4043 351.351 9.63011C352.706 9.22148 354.083 9.13546 355.373 9.15696C356.685 9.22148 357.911 9.50107 359.072 9.86668C361.352 10.6409 363.202 11.8883 364.599 13.2002C365.997 14.5121 366.944 15.8885 367.589 17.0714C368.793 19.5016 368.858 21.0716 368.965 21.0501C368.965 21.0501 368.965 20.964 368.944 20.7705C368.901 20.5554 368.858 20.2758 368.815 19.9532C368.686 19.2435 368.385 18.2112 367.804 16.9638C367.18 15.738 366.255 14.297 364.836 12.9421C363.438 11.5872 361.567 10.2753 359.201 9.45805C358.018 9.04943 356.75 8.76985 355.395 8.68382C354.04 8.64081 352.599 8.72683 351.201 9.13546C348.362 9.88818 345.631 11.5872 343.308 13.8669C340.942 16.1251 338.985 18.9854 337.243 22.0394C335.48 25.0933 333.91 28.3838 331.996 31.5667C328.232 37.9542 323.651 43.5029 318.447 47.2665C313.306 51.1377 307.564 52.8797 302.747 53.2023C297.886 53.5464 293.994 52.4711 291.52 51.3742C289.09 50.3204 287.929 49.3311 287.864 49.4171Z" fill="#597C8D"/>
<path d="M285.455 37.762C285.434 37.8051 285.778 38.0416 286.401 38.4287C287.025 38.8374 287.993 39.332 289.219 39.8697C290.445 40.4073 291.95 40.9235 293.671 41.3321C295.391 41.7192 297.327 42.0203 299.37 42.0849C301.413 42.1494 303.37 41.9773 305.112 41.6977C306.854 41.3966 308.403 40.988 309.65 40.5149C310.897 40.0632 311.908 39.6331 312.553 39.2675C313.22 38.9234 313.564 38.7083 313.543 38.6653C313.5 38.5578 312.016 39.3105 309.521 40.1063C308.273 40.5149 306.747 40.859 305.026 41.1386C303.305 41.3751 301.391 41.5257 299.391 41.4827C297.391 41.3966 295.499 41.1386 293.8 40.7945C292.101 40.4073 290.595 39.9557 289.369 39.4826C286.939 38.5148 285.52 37.6545 285.455 37.762Z" fill="#597C8D"/>
<path d="M307.134 77.7154C307.671 78.253 310.725 75.7798 315.156 75.6722C319.586 75.4787 322.92 77.7369 323.371 77.1562C323.608 76.8981 323.049 75.9303 321.608 74.898C320.188 73.8872 317.779 72.9409 315.005 73.0269C312.231 73.1345 309.951 74.2313 308.639 75.3496C307.306 76.468 306.876 77.4788 307.134 77.7154Z" fill="#263238"/>
<path d="M309.65 86.5166C309.715 88.4091 311.392 89.9146 313.371 89.8716C315.35 89.8285 316.898 88.2586 316.834 86.366C316.769 84.4734 315.092 82.968 313.113 82.9895C311.134 83.054 309.586 84.624 309.65 86.5166Z" fill="#263238"/>
<path d="M289.521 184.997L193.602 247.774L135.148 202.202L116.932 231.042C116.932 231.042 150.955 270.421 163.579 283.798C176.182 297.175 184.591 304.315 194.527 303.025C204.463 301.756 287.521 269.496 287.521 269.496L300.103 181.448L294.834 182.717C292.941 183.147 291.134 183.943 289.521 184.997Z" fill="#597C8D"/>
<path d="M396.559 163.554C375.095 177.038 353.481 182.114 331.566 173.382L298.64 181.791L282.639 209.621C280.123 213.986 278.983 219.019 279.348 224.052L285.628 330.573L266.229 398.233L456.175 399.889L446.82 349.628L423.27 169.016L396.559 163.554Z" fill="#597C8D"/>
<path d="M425.592 250.052L419.656 168.499C419.656 168.499 464.368 172.65 479.165 204.178C491.639 230.76 529.038 308.033 532.737 318.959C543.555 351.068 523.662 397.887 454.045 395.35L446.109 351.713L425.592 250.052Z" fill="#597C8D"/>
<path d="M461.314 317.947C461.25 317.968 461.658 319.194 462.433 321.151C463.207 323.108 464.347 325.775 465.659 328.678C466.927 331.517 468.089 334.076 469.014 336.141C469.874 338.055 470.411 339.238 470.476 339.195C470.541 339.174 470.132 337.948 469.358 335.991C468.583 334.033 467.444 331.367 466.132 328.463C464.863 325.624 463.701 323.065 462.777 321C461.916 319.108 461.379 317.925 461.314 317.947Z" fill="#263238"/>
<path d="M436.56 253.775C436.71 253.775 436.818 248.613 436.818 242.226C436.818 235.838 436.689 230.677 436.56 230.677C436.409 230.677 436.302 235.838 436.302 242.226C436.302 248.592 436.431 253.775 436.56 253.775Z" fill="#263238"/>
<path d="M443.141 219.037C443.184 219.037 443.313 218.585 443.549 217.747C443.764 216.908 444.13 215.703 444.603 214.241C445.571 211.316 447.184 207.337 449.571 203.273C451.958 199.208 454.647 195.874 456.754 193.595C457.808 192.455 458.668 191.552 459.292 190.971C459.916 190.369 460.238 190.025 460.217 189.982C460.195 189.96 459.808 190.24 459.142 190.82C458.475 191.38 457.55 192.24 456.453 193.337C454.281 195.552 451.507 198.907 449.077 202.993C446.668 207.101 445.076 211.144 444.216 214.133C443.764 215.617 443.463 216.843 443.313 217.704C443.184 218.542 443.119 219.015 443.141 219.037Z" fill="#263238"/>
<path d="M285.413 213.985C285.499 213.985 285.585 214.932 285.671 216.652C285.779 218.373 285.8 220.867 285.757 223.943C285.671 230.094 285.048 238.567 284.295 247.901C283.542 257.235 283.176 265.687 283.348 271.816C283.413 274.87 283.521 277.344 283.671 279.064C283.779 280.763 283.822 281.731 283.736 281.731C283.65 281.731 283.478 280.806 283.241 279.107C282.961 277.408 282.746 274.913 282.574 271.859C282.209 265.709 282.445 257.192 283.198 247.837C283.951 238.503 284.703 230.051 284.983 223.943C285.134 220.889 285.22 218.394 285.263 216.695C285.284 214.953 285.349 213.985 285.413 213.985Z" fill="#263238"/>
<path d="M489.789 332.938C489.832 333.024 488.714 333.605 486.735 334.659C484.735 335.712 481.896 337.304 478.434 339.368C474.971 341.433 470.885 343.992 466.132 346.444C463.745 347.67 461.229 348.896 458.54 350.057C455.852 351.175 453.078 352.315 450.217 353.498C449.336 353.864 448.475 354.208 447.658 354.552L448.002 353.95C449.83 365.499 451.4 375.843 452.497 383.285C452.992 386.876 453.4 389.844 453.723 392.102C453.981 394.189 454.089 395.328 454.024 395.35C453.959 395.371 453.701 394.232 453.314 392.167C452.906 389.909 452.389 386.962 451.744 383.392C450.454 375.972 448.755 365.649 446.905 354.1L446.841 353.67L447.249 353.498C448.067 353.176 448.927 352.81 449.809 352.444C452.648 351.283 455.422 350.143 458.11 349.046C460.777 347.907 463.293 346.724 465.659 345.519C470.412 343.132 474.52 340.659 478.047 338.68C481.574 336.702 484.499 335.218 486.542 334.271C487.574 333.798 488.37 333.454 488.929 333.239C489.488 333.003 489.768 332.895 489.789 332.938Z" fill="#263238"/>
<path d="M499.919 318.958C499.962 319.152 497.661 319.582 494.177 320.872C490.693 322.163 486.069 324.486 481.703 328.077C477.337 331.69 474.176 335.798 472.262 338.959C470.326 342.142 469.466 344.293 469.272 344.229C469.208 344.207 469.358 343.648 469.703 342.637C470.025 341.626 470.67 340.228 471.552 338.572C473.337 335.239 476.499 330.937 480.972 327.217C485.467 323.518 490.284 321.238 493.897 320.12C495.704 319.561 497.209 319.216 498.242 319.066C499.317 318.937 499.898 318.894 499.919 318.958Z" fill="#263238"/>
<path d="M427.571 399.006L474.24 286.398C476.37 281.258 473.703 277.086 468.283 277.086H458.885C455.057 277.086 452.433 274.978 452.196 271.688L451.895 267.537C451.637 264.246 449.035 262.139 445.185 262.139H400.559C397.075 262.139 393.161 263.881 390.236 266.72L386.623 270.225C383.698 273.064 379.784 274.806 376.3 274.806H319.48C314.06 274.806 307.974 278.978 305.909 284.118L259.648 399.028H427.571V399.006Z" fill="#D45235"/>
<g opacity="0.3">
<g opacity="0.3">
<g opacity="0.3">
<g opacity="0.3">
<path opacity="0.3" d="M427.571 399.006L474.24 286.398C476.37 281.258 473.703 277.086 468.283 277.086H458.885C455.057 277.086 452.433 274.978 452.196 271.688L451.895 267.537C451.637 264.246 449.035 262.139 445.185 262.139H400.559C397.075 262.139 393.161 263.881 390.236 266.72L386.623 270.225C383.698 273.064 379.784 274.806 376.3 274.806H319.48C314.06 274.806 307.974 278.978 305.909 284.118L259.648 399.028H427.571V399.006Z" fill="black"/>
</g>
</g>
</g>
</g>
<path d="M435.27 360.765L452.862 292.718C454.024 288.245 451.077 283.75 447.013 283.75H309.048C306.317 283.75 303.93 285.815 303.177 288.826L277.563 391.261C276.445 395.756 278.23 398.466 282.316 398.401L421.14 398.444C423.829 398.401 426.173 396.38 426.947 393.412L435.27 360.765Z" fill="#E0E0E0"/>
<path d="M425.743 395.929L433.249 288.762C433.507 284.955 430.496 281.729 426.689 281.729H283.735V395.929H425.743Z" fill="#EBEBEB"/>
<path d="M427.335 398.381L410.323 287.902C409.549 284.31 406.301 281.729 402.559 281.729H257.949C252.229 281.729 248.379 287.472 250.659 292.612L281.886 393.714L427.335 398.381Z" fill="#FAFAFA"/>
<path d="M427.571 398.941L392.494 295.473C391.031 291.172 387.117 288.29 382.73 288.29H233.647C228.851 288.29 225.453 293.215 226.98 297.946L259.605 399.006L427.571 398.941Z" fill="#D45235"/>
<g opacity="0.3">
<g opacity="0.3">
<g opacity="0.3">
<g opacity="0.3">
<path opacity="0.3" d="M355.481 381.629C355.481 381.629 361.116 381.887 363.697 382.059C376.063 382.898 388.601 380.682 399.914 375.628C403.419 374.058 407.14 371.865 408.194 368.166C409.377 364.036 406.71 359.735 403.441 356.918C400.172 354.122 396.215 352.122 393.376 348.896C390.537 345.67 389.204 340.422 391.999 337.153L392.774 337.713C394.795 342.831 400.408 345.283 405.054 348.208C413.7 353.627 420.281 362.251 423.248 371.994C424.883 377.349 425.313 383.607 422.066 388.167C419.764 391.414 415.979 393.242 412.259 394.619C400.989 398.791 388.924 398.963 376.902 398.963C373.095 398.963 361.439 398.812 361.439 398.812C357.761 397.823 356.557 395.909 354.363 392.812C352.363 389.995 352.793 383.844 355.481 381.629Z" fill="black"/>
</g>
</g>
</g>
</g>
<path d="M355.482 381.626L394.365 375.777L409.463 367.088C411.463 365.948 412.818 363.905 412.925 361.604C412.925 361.561 412.925 361.518 412.925 361.475C413.033 358.614 411.291 356.012 408.646 354.894C403.85 352.872 396.279 350.184 393.032 344.528C388.387 336.377 393.032 334.699 393.032 334.699L425.507 347.689L448.497 363.324L453.121 389.412L421.055 399.885C421.055 399.885 385.311 401.907 375.461 400.789C365.59 399.692 365.59 395.09 365.59 395.09C363.762 394.509 360.062 391.261 360.062 388.229C355.288 383.734 355.482 381.626 355.482 381.626Z" fill="#FFBE9D"/>
<path d="M405.227 392.852C405.205 392.809 404.646 392.917 403.635 393.153C402.624 393.39 401.14 393.734 399.312 394.099C395.656 394.831 390.538 395.605 384.839 395.82C379.139 396.035 373.999 395.669 370.279 395.218C368.429 395.003 366.924 394.788 365.891 394.616C364.859 394.465 364.278 394.401 364.278 394.444C364.278 394.487 364.837 394.637 365.848 394.874C366.859 395.11 368.365 395.411 370.214 395.691C373.935 396.25 379.118 396.702 384.86 396.487C390.602 396.25 395.742 395.411 399.398 394.551C401.227 394.121 402.689 393.734 403.7 393.411C404.689 393.089 405.227 392.895 405.227 392.852Z" fill="#EB996E"/>
<path d="M401.656 386.832C401.635 386.789 401.054 386.896 400.022 387.133C398.989 387.391 397.484 387.713 395.634 388.057C391.914 388.789 386.709 389.498 380.945 389.692C375.16 389.864 369.934 389.477 366.17 389.004C364.278 388.767 362.772 388.552 361.719 388.38C360.665 388.208 360.084 388.143 360.084 388.186C360.084 388.229 360.643 388.38 361.675 388.617C362.708 388.875 364.235 389.154 366.106 389.434C369.869 390.015 375.139 390.488 380.967 390.316C386.795 390.122 392.021 389.326 395.742 388.488C397.591 388.079 399.097 387.67 400.108 387.348C401.118 387.09 401.678 386.875 401.656 386.832Z" fill="#EB996E"/>
</svg>
